<svg width="1024" height="1024" viewBox="0 0 1024 1024" fill="none" xmlns="http://www.w3.org/2000/svg">
<mask id="path-1-outside-1_53_4020" maskUnits="userSpaceOnUse" x="151.417" y="32.0264" width="722" height="959" fill="black">
<rect fill="white" x="151.417" y="32.0264" width="722" height="959"/>
<path d="M230.671 34.9121C215.923 39.003 201.928 47.1848 190.409 58.5962C159.942 89.0625 152.945 135.031 173.507 170.127C175.983 174.433 181.688 181.43 186.641 186.275C197.191 196.825 209.033 203.177 223.028 205.976L232.071 207.806L229.487 213.727C225.181 223.523 217.861 246.885 214.954 260.126C212.047 273.045 209.679 289.731 207.741 312.769C207.095 320.198 205.157 336.346 203.327 348.834C197.514 390.066 198.16 410.305 205.803 434.312C216.246 467.147 241.437 495.137 275.887 512.039C279.87 513.976 283.099 515.914 283.099 516.237C283.099 516.56 280.623 518.39 277.609 520.436C268.889 526.357 249.942 543.043 239.391 554.132C203.865 591.488 173.291 643.593 159.835 690.1C150.146 723.688 149.93 754.047 159.296 772.456C167.155 787.743 183.411 794.956 199.667 790.327C210.325 787.205 217.322 782.468 230.241 769.441C237.884 761.798 242.191 758.138 241.76 759.753C241.329 761.044 240.683 773.64 240.36 787.528L239.714 812.826L235.516 817.671C227.011 827.252 223.889 836.618 223.889 852.228C223.889 895.29 252.633 943.842 294.403 971.51C313.781 984.321 330.791 990.026 349.307 990.026C368.362 989.919 382.034 984.644 394.415 972.586C401.197 965.912 402.058 965.373 404.642 966.45C416.591 970.971 454.163 978.077 476.878 980.23C492.811 981.629 533.074 981.629 549.007 980.23C571.292 978.184 607.033 971.294 619.952 966.45C622.105 965.696 623.397 966.558 628.995 972.156C641.267 984.213 656.447 989.919 676.147 989.919C699.616 989.919 721.47 980.553 746.338 959.991C778.204 933.615 800.919 889.261 800.919 853.628C800.919 838.018 797.905 828.436 789.939 818.64L785.094 812.719L784.448 787.958C784.018 774.394 783.372 761.583 783.049 759.537L782.295 755.769L785.309 759.537C792.092 767.934 803.934 779.453 810.07 783.437C832.247 797.97 856.254 792.587 866.266 770.733C875.201 751.14 873.586 716.368 862.175 681.918C848.826 641.547 825.895 600.746 797.474 567.158C786.601 554.347 764.101 533.031 752.152 524.311C746.554 520.113 741.817 516.56 741.817 516.237C741.709 515.914 744.939 513.976 749.03 512.039C761.195 506.118 779.927 492.984 788.754 484.156C808.994 464.025 820.943 438.726 824.604 408.044C826.218 394.479 825.465 379.838 821.374 348.834C819.651 335.808 817.391 316.86 816.529 306.848C815.561 296.729 814.161 283.918 813.192 278.32C809.962 257.435 802.319 230.198 795.429 214.911C793.707 211.143 792.307 207.914 792.307 207.698C792.307 207.483 793.922 207.268 795.86 207.268C805.549 207.268 821.804 200.593 832.032 192.411C845.489 181.538 856.577 164.529 860.883 148.057C863.467 138.368 863.467 115.546 860.991 106.395C851.517 72.053 829.125 46.7541 799.197 36.5269C792.199 34.1585 788.216 33.5126 776.697 33.082C759.903 32.5437 753.228 33.8356 739.018 40.8331C727.068 46.7541 716.949 55.0436 709.628 64.7325C703.922 72.376 695.525 88.3089 693.157 95.9524L691.757 100.366L677.655 92.9381C640.191 73.5602 601.758 61.8258 556.005 55.7972C537.596 53.4287 493.134 53.1058 475.802 55.2589C437.799 59.888 407.118 67.3162 377.943 78.8353C365.025 83.8951 345.216 93.4764 337.68 98.2132C335.42 99.6127 333.374 100.689 333.267 100.474C333.159 100.259 332.082 97.6749 331.006 94.7682C325.515 79.5889 314.535 62.0411 305.707 53.967C298.279 47.2924 287.19 40.5102 277.717 37.0652C269.32 33.9432 267.274 33.6202 253.494 33.2973C241.006 32.9743 237.023 33.1896 230.671 34.9121ZM268.028 39.7566C288.052 44.601 303.123 55.6895 315.181 74.2061C320.133 81.742 328.314 99.1821 328.314 102.196C328.314 102.95 324.331 106.287 319.487 109.517C314.535 112.854 308.506 117.053 306.03 118.883L301.616 122.22L300.862 119.098C299.786 114.254 292.681 103.919 286.975 98.8591C284.068 96.2754 279.008 92.9381 275.671 91.3233C270.396 88.8472 268.243 88.4166 259.415 88.3089C249.942 88.3089 248.65 88.6319 242.083 91.7539C233.148 96.1677 224.966 104.672 220.337 114.361C217.107 121.251 216.892 122.436 216.892 133.524C216.892 144.612 217.107 145.797 220.337 152.579C224.75 162.053 232.502 169.696 241.975 174.218L249.296 177.77L241.975 190.043C237.884 196.825 234.332 202.531 234.116 202.746C233.255 203.715 215.815 199.516 210.217 197.04C191.162 188.536 175.229 169.588 169.523 148.596C166.832 138.691 166.294 121.144 168.232 110.916C174.691 76.6822 201.066 47.5077 232.394 39.8642C240.253 38.0341 260.492 37.9264 268.028 39.7566ZM800.058 42.2326C822.02 50.9527 839.568 67.8545 850.01 90.462C855.285 101.873 857.008 109.409 857.654 122.866C859.161 154.84 844.089 182.292 817.929 195.426C809.962 199.409 795.321 203.5 791.876 202.746C790.908 202.638 786.817 196.825 782.726 190.043L775.405 177.77L782.51 174.218C793.061 169.158 799.089 163.344 803.826 153.655C807.809 145.689 807.917 145.151 807.917 133.632C807.917 122.436 807.702 121.251 804.472 114.361C799.843 104.565 791.015 95.4142 782.295 91.4309C776.482 88.6319 774.329 88.3089 765.393 88.3089C756.243 88.3089 754.52 88.6319 748.707 91.4309C739.987 95.7371 731.374 104.672 726.53 114.469L722.762 122.328L715.764 117.053C711.996 114.146 705.86 109.84 702.2 107.364L695.525 102.842L698.324 96.1677C708.659 70.7612 720.717 56.1201 739.664 46.3235C753.013 39.4336 758.611 38.2494 776.697 38.5724C790.585 38.8953 792.415 39.2183 800.058 42.2326ZM564.079 61.8258C662.368 76.4669 739.771 124.804 781.434 197.471C798.336 226.968 806.517 256.574 811.685 306.848C812.869 318.69 815.238 337.853 816.745 349.372C819.221 366.704 819.651 374.348 819.651 392.972C819.651 414.073 819.436 416.226 816.745 426.345C800.058 488.247 743.001 523.665 637.284 537.768C600.251 542.613 579.796 543.689 513.481 543.689C448.888 543.689 435.539 543.151 395.599 538.737C336.927 532.385 292.142 518.606 259.415 496.752C247.573 488.893 231.64 473.498 224.966 463.594C218.291 453.582 211.294 438.187 207.956 426.13C205.265 416.226 205.157 414.18 205.157 391.896C205.05 370.903 205.48 365.413 208.495 343.989C210.432 330.64 212.693 311.478 213.662 301.466C219.906 235.366 239.391 190.366 279.87 148.703C315.611 111.778 364.271 84.541 419.498 70.4382C438.876 65.4861 454.809 62.5794 470.957 60.9646C477.524 60.3187 484.306 59.5651 486.029 59.3498C487.859 59.1345 502.823 59.0268 519.402 59.2421C542.548 59.5651 552.883 60.1033 564.079 61.8258ZM273.195 95.9524C283.961 100.689 291.819 109.194 296.233 120.605L297.956 124.912L283.638 138.691C275.779 146.227 265.552 156.993 261.03 162.591C256.401 168.189 252.095 172.818 251.341 172.818C248.004 172.818 236.592 165.82 231.963 160.868C222.813 151.072 219.152 138.584 221.736 125.988C227.119 100.151 251.234 86.0482 273.195 95.9524ZM773.037 93.584C785.309 96.383 794.245 104.134 800.166 116.622C803.073 122.758 803.395 124.804 803.395 132.878C803.288 144.828 800.596 152.364 793.276 160.33C788.109 166.036 776.912 172.926 773.037 172.818C772.068 172.71 769.161 169.696 766.47 166.036C763.778 162.376 753.874 151.718 744.508 142.244L727.391 125.127L728.791 121.251C731.697 112.854 739.448 102.95 747.092 97.8902C750.752 95.4142 760.657 92.2922 764.855 92.1845C766.039 92.1845 769.7 92.7228 773.037 93.584ZM299.786 522.696C325.192 532.708 361.257 540.244 407.225 545.089L414.546 545.842L407.979 550.579C380.85 570.28 353.936 616.787 341.771 664.801C334.235 694.621 331.221 720.566 331.221 755.339L331.329 779.669L325.623 780.315C310.659 781.822 299.14 791.403 294.295 806.259C293.327 809.274 292.358 811.858 292.25 812.073C292.142 812.288 290.312 811.427 288.374 810.243C277.717 804.106 258.339 802.922 248.757 807.874L244.021 810.35L244.667 791.08C246.712 727.456 266.736 648.007 292.25 601.823C297.848 591.703 298.602 588.258 294.618 589.765C292.465 590.627 278.793 617.971 272.011 635.196C260.6 664.263 250.695 701.834 244.99 737.791C243.375 747.803 243.267 747.91 236.269 756.308C216.676 779.884 199.344 789.788 183.626 786.451C167.37 783.114 158.543 767.827 157.466 741.128C154.667 674.705 212.262 573.079 280.085 524.527C284.93 521.082 289.343 518.498 289.989 518.821C290.635 519.144 295.049 520.866 299.786 522.696ZM744.508 524.419C783.264 552.086 816.099 592.457 840.213 641.655C862.606 687.408 871.326 725.195 866.158 754.37C862.283 775.901 851.625 786.882 834.723 786.882C828.048 786.882 826.003 786.451 818.575 782.791C811.793 779.453 808.025 776.547 800.381 768.796C786.924 755.231 780.896 745.973 779.388 736.284C775.405 711.093 768.085 679.873 761.087 657.803C752.152 629.921 733.42 589.442 729.329 589.442C726.207 589.442 726.745 591.811 731.482 599.993C757.212 644.239 777.774 725.088 780.142 791.511C780.465 801.738 780.573 810.135 780.25 810.135C780.034 810.135 777.666 809.058 774.975 807.659C770.884 805.614 768.515 805.291 758.396 805.291C747.307 805.291 746.123 805.506 739.341 808.736L732.128 812.073L730.513 806.475C728.791 800.661 724.161 793.449 719.209 788.927C715.118 785.051 706.075 781.068 699.939 780.315L694.556 779.669L694.018 748.879C693.157 700.65 687.236 668.031 672.702 630.674C659.999 598.163 638.253 566.727 617.153 550.579L611.124 545.842L618.014 544.981C667.858 539.06 701.016 531.955 726.638 521.835C731.051 520.005 735.035 518.498 735.358 518.498C735.788 518.39 739.879 521.082 744.508 524.419ZM463.421 548.641C492.058 550.041 560.849 549.395 586.901 547.457L602.727 546.273L609.509 550.794C618.875 557.038 635.239 573.94 644.066 586.213C660.43 609.251 675.824 646.715 682.391 679.442C688.097 707.755 689.281 719.813 689.389 750.602C689.497 765.997 689.174 779.023 688.851 779.346C688.528 779.776 685.298 780.745 681.853 781.714C658.815 787.635 638.253 810.889 622.751 848.245C618.229 859.226 613.169 878.281 611.339 891.307L610.047 900.673L605.31 904.01C571.399 927.264 494.857 932.539 444.151 914.883C424.02 907.993 413.362 900.673 413.362 894.106C413.362 888.831 409.379 870.314 405.718 858.687C401.95 846.845 391.938 825.853 385.264 815.518C378.051 804.429 363.625 790.865 354.259 786.128C349.845 783.867 344.355 781.822 342.094 781.391C338.865 780.961 337.573 780.099 336.819 778.162C335.204 773.963 335.635 731.978 337.465 714.537C344.786 644.885 372.991 583.521 411.424 554.024L421.436 546.273L429.51 546.811C433.924 547.134 449.211 547.995 463.421 548.641ZM338.649 785.482C372.345 791.618 402.919 840.386 409.163 897.874C413.362 936.845 402.273 966.235 379.02 978.507C368.362 984.105 359.211 985.935 345.539 985.29C321.532 984.213 298.602 972.586 274.379 949.333C251.341 927.156 236.269 900.35 230.348 871.606C224.427 842.216 231.533 821.223 250.695 812.18C261.03 807.228 278.363 808.951 288.59 815.841C291.819 817.994 292.358 819.07 293.004 824.238C294.403 835.219 302.047 851.475 305.492 850.829C307.968 850.398 307.752 849.537 303.123 840.063C295.695 824.884 295.48 811.965 302.477 799.693C306.138 793.341 311.52 789.25 320.025 786.343C326.592 784.083 329.929 783.867 338.649 785.482ZM708.552 787.635C727.391 797.001 732.236 817.348 721.147 840.171C718.025 846.522 717.056 849.429 717.918 850.29C720.932 853.305 729.329 837.695 731.267 825.314C732.343 818.424 732.559 817.886 736.757 815.195C757.965 801.953 785.417 811.104 794.46 834.573C802.104 854.274 792.199 894.644 772.283 924.249C752.475 953.854 720.824 977.431 692.511 983.89C676.686 987.443 657.308 985.182 644.497 978.4C636.207 973.986 625.98 963.328 622.212 955.254C616.83 943.627 615.538 937.06 614.999 917.79C614.353 896.259 616.507 881.187 623.181 860.733C636.961 818.963 660.537 790.649 685.729 785.374C692.834 783.975 703.169 784.944 708.552 787.635ZM417.13 907.024C418.314 908.962 434.57 916.606 444.366 919.943C455.455 923.603 471.388 926.941 485.383 928.555C498.517 930.063 530.06 930.063 542.763 928.448C564.725 925.864 588.301 919.082 601.758 911.546C605.633 909.393 608.971 907.455 609.294 907.347C609.617 907.132 609.94 912.192 610.047 918.436C610.263 932.431 612.739 945.242 616.937 954.285C618.66 958.053 619.952 961.283 619.844 961.39C618.767 962.467 602.296 966.773 589.593 969.357C561.064 975.278 549.33 976.354 513.481 976.354C478.17 976.462 463.96 975.278 437.584 969.895C427.357 967.849 405.18 962.251 403.996 961.498C403.888 961.39 404.965 958.806 406.472 955.684C410.993 946.211 413.469 934.476 414.115 919.62C414.654 907.024 415.407 904.225 417.13 907.024Z"/>
</mask>
<path d="M230.671 34.9121C215.923 39.003 201.928 47.1848 190.409 58.5962C159.942 89.0625 152.945 135.031 173.507 170.127C175.983 174.433 181.688 181.43 186.641 186.275C197.191 196.825 209.033 203.177 223.028 205.976L232.071 207.806L229.487 213.727C225.181 223.523 217.861 246.885 214.954 260.126C212.047 273.045 209.679 289.731 207.741 312.769C207.095 320.198 205.157 336.346 203.327 348.834C197.514 390.066 198.16 410.305 205.803 434.312C216.246 467.147 241.437 495.137 275.887 512.039C279.87 513.976 283.099 515.914 283.099 516.237C283.099 516.56 280.623 518.39 277.609 520.436C268.889 526.357 249.942 543.043 239.391 554.132C203.865 591.488 173.291 643.593 159.835 690.1C150.146 723.688 149.93 754.047 159.296 772.456C167.155 787.743 183.411 794.956 199.667 790.327C210.325 787.205 217.322 782.468 230.241 769.441C237.884 761.798 242.191 758.138 241.76 759.753C241.329 761.044 240.683 773.64 240.36 787.528L239.714 812.826L235.516 817.671C227.011 827.252 223.889 836.618 223.889 852.228C223.889 895.29 252.633 943.842 294.403 971.51C313.781 984.321 330.791 990.026 349.307 990.026C368.362 989.919 382.034 984.644 394.415 972.586C401.197 965.912 402.058 965.373 404.642 966.45C416.591 970.971 454.163 978.077 476.878 980.23C492.811 981.629 533.074 981.629 549.007 980.23C571.292 978.184 607.033 971.294 619.952 966.45C622.105 965.696 623.397 966.558 628.995 972.156C641.267 984.213 656.447 989.919 676.147 989.919C699.616 989.919 721.47 980.553 746.338 959.991C778.204 933.615 800.919 889.261 800.919 853.628C800.919 838.018 797.905 828.436 789.939 818.64L785.094 812.719L784.448 787.958C784.018 774.394 783.372 761.583 783.049 759.537L782.295 755.769L785.309 759.537C792.092 767.934 803.934 779.453 810.07 783.437C832.247 797.97 856.254 792.587 866.266 770.733C875.201 751.14 873.586 716.368 862.175 681.918C848.826 641.547 825.895 600.746 797.474 567.158C786.601 554.347 764.101 533.031 752.152 524.311C746.554 520.113 741.817 516.56 741.817 516.237C741.709 515.914 744.939 513.976 749.03 512.039C761.195 506.118 779.927 492.984 788.754 484.156C808.994 464.025 820.943 438.726 824.604 408.044C826.218 394.479 825.465 379.838 821.374 348.834C819.651 335.808 817.391 316.86 816.529 306.848C815.561 296.729 814.161 283.918 813.192 278.32C809.962 257.435 802.319 230.198 795.429 214.911C793.707 211.143 792.307 207.914 792.307 207.698C792.307 207.483 793.922 207.268 795.86 207.268C805.549 207.268 821.804 200.593 832.032 192.411C845.489 181.538 856.577 164.529 860.883 148.057C863.467 138.368 863.467 115.546 860.991 106.395C851.517 72.053 829.125 46.7541 799.197 36.5269C792.199 34.1585 788.216 33.5126 776.697 33.082C759.903 32.5437 753.228 33.8356 739.018 40.8331C727.068 46.7541 716.949 55.0436 709.628 64.7325C703.922 72.376 695.525 88.3089 693.157 95.9524L691.757 100.366L677.655 92.9381C640.191 73.5602 601.758 61.8258 556.005 55.7972C537.596 53.4287 493.134 53.1058 475.802 55.2589C437.799 59.888 407.118 67.3162 377.943 78.8353C365.025 83.8951 345.216 93.4764 337.68 98.2132C335.42 99.6127 333.374 100.689 333.267 100.474C333.159 100.259 332.082 97.6749 331.006 94.7682C325.515 79.5889 314.535 62.0411 305.707 53.967C298.279 47.2924 287.19 40.5102 277.717 37.0652C269.32 33.9432 267.274 33.6202 253.494 33.2973C241.006 32.9743 237.023 33.1896 230.671 34.9121ZM268.028 39.7566C288.052 44.601 303.123 55.6895 315.181 74.2061C320.133 81.742 328.314 99.1821 328.314 102.196C328.314 102.95 324.331 106.287 319.487 109.517C314.535 112.854 308.506 117.053 306.03 118.883L301.616 122.22L300.862 119.098C299.786 114.254 292.681 103.919 286.975 98.8591C284.068 96.2754 279.008 92.9381 275.671 91.3233C270.396 88.8472 268.243 88.4166 259.415 88.3089C249.942 88.3089 248.65 88.6319 242.083 91.7539C233.148 96.1677 224.966 104.672 220.337 114.361C217.107 121.251 216.892 122.436 216.892 133.524C216.892 144.612 217.107 145.797 220.337 152.579C224.75 162.053 232.502 169.696 241.975 174.218L249.296 177.77L241.975 190.043C237.884 196.825 234.332 202.531 234.116 202.746C233.255 203.715 215.815 199.516 210.217 197.04C191.162 188.536 175.229 169.588 169.523 148.596C166.832 138.691 166.294 121.144 168.232 110.916C174.691 76.6822 201.066 47.5077 232.394 39.8642C240.253 38.0341 260.492 37.9264 268.028 39.7566ZM800.058 42.2326C822.02 50.9527 839.568 67.8545 850.01 90.462C855.285 101.873 857.008 109.409 857.654 122.866C859.161 154.84 844.089 182.292 817.929 195.426C809.962 199.409 795.321 203.5 791.876 202.746C790.908 202.638 786.817 196.825 782.726 190.043L775.405 177.77L782.51 174.218C793.061 169.158 799.089 163.344 803.826 153.655C807.809 145.689 807.917 145.151 807.917 133.632C807.917 122.436 807.702 121.251 804.472 114.361C799.843 104.565 791.015 95.4142 782.295 91.4309C776.482 88.6319 774.329 88.3089 765.393 88.3089C756.243 88.3089 754.52 88.6319 748.707 91.4309C739.987 95.7371 731.374 104.672 726.53 114.469L722.762 122.328L715.764 117.053C711.996 114.146 705.86 109.84 702.2 107.364L695.525 102.842L698.324 96.1677C708.659 70.7612 720.717 56.1201 739.664 46.3235C753.013 39.4336 758.611 38.2494 776.697 38.5724C790.585 38.8953 792.415 39.2183 800.058 42.2326ZM564.079 61.8258C662.368 76.4669 739.771 124.804 781.434 197.471C798.336 226.968 806.517 256.574 811.685 306.848C812.869 318.69 815.238 337.853 816.745 349.372C819.221 366.704 819.651 374.348 819.651 392.972C819.651 414.073 819.436 416.226 816.745 426.345C800.058 488.247 743.001 523.665 637.284 537.768C600.251 542.613 579.796 543.689 513.481 543.689C448.888 543.689 435.539 543.151 395.599 538.737C336.927 532.385 292.142 518.606 259.415 496.752C247.573 488.893 231.64 473.498 224.966 463.594C218.291 453.582 211.294 438.187 207.956 426.13C205.265 416.226 205.157 414.18 205.157 391.896C205.05 370.903 205.48 365.413 208.495 343.989C210.432 330.64 212.693 311.478 213.662 301.466C219.906 235.366 239.391 190.366 279.87 148.703C315.611 111.778 364.271 84.541 419.498 70.4382C438.876 65.4861 454.809 62.5794 470.957 60.9646C477.524 60.3187 484.306 59.5651 486.029 59.3498C487.859 59.1345 502.823 59.0268 519.402 59.2421C542.548 59.5651 552.883 60.1033 564.079 61.8258ZM273.195 95.9524C283.961 100.689 291.819 109.194 296.233 120.605L297.956 124.912L283.638 138.691C275.779 146.227 265.552 156.993 261.03 162.591C256.401 168.189 252.095 172.818 251.341 172.818C248.004 172.818 236.592 165.82 231.963 160.868C222.813 151.072 219.152 138.584 221.736 125.988C227.119 100.151 251.234 86.0482 273.195 95.9524ZM773.037 93.584C785.309 96.383 794.245 104.134 800.166 116.622C803.073 122.758 803.395 124.804 803.395 132.878C803.288 144.828 800.596 152.364 793.276 160.33C788.109 166.036 776.912 172.926 773.037 172.818C772.068 172.71 769.161 169.696 766.47 166.036C763.778 162.376 753.874 151.718 744.508 142.244L727.391 125.127L728.791 121.251C731.697 112.854 739.448 102.95 747.092 97.8902C750.752 95.4142 760.657 92.2922 764.855 92.1845C766.039 92.1845 769.7 92.7228 773.037 93.584ZM299.786 522.696C325.192 532.708 361.257 540.244 407.225 545.089L414.546 545.842L407.979 550.579C380.85 570.28 353.936 616.787 341.771 664.801C334.235 694.621 331.221 720.566 331.221 755.339L331.329 779.669L325.623 780.315C310.659 781.822 299.14 791.403 294.295 806.259C293.327 809.274 292.358 811.858 292.25 812.073C292.142 812.288 290.312 811.427 288.374 810.243C277.717 804.106 258.339 802.922 248.757 807.874L244.021 810.35L244.667 791.08C246.712 727.456 266.736 648.007 292.25 601.823C297.848 591.703 298.602 588.258 294.618 589.765C292.465 590.627 278.793 617.971 272.011 635.196C260.6 664.263 250.695 701.834 244.99 737.791C243.375 747.803 243.267 747.91 236.269 756.308C216.676 779.884 199.344 789.788 183.626 786.451C167.37 783.114 158.543 767.827 157.466 741.128C154.667 674.705 212.262 573.079 280.085 524.527C284.93 521.082 289.343 518.498 289.989 518.821C290.635 519.144 295.049 520.866 299.786 522.696ZM744.508 524.419C783.264 552.086 816.099 592.457 840.213 641.655C862.606 687.408 871.326 725.195 866.158 754.37C862.283 775.901 851.625 786.882 834.723 786.882C828.048 786.882 826.003 786.451 818.575 782.791C811.793 779.453 808.025 776.547 800.381 768.796C786.924 755.231 780.896 745.973 779.388 736.284C775.405 711.093 768.085 679.873 761.087 657.803C752.152 629.921 733.42 589.442 729.329 589.442C726.207 589.442 726.745 591.811 731.482 599.993C757.212 644.239 777.774 725.088 780.142 791.511C780.465 801.738 780.573 810.135 780.25 810.135C780.034 810.135 777.666 809.058 774.975 807.659C770.884 805.614 768.515 805.291 758.396 805.291C747.307 805.291 746.123 805.506 739.341 808.736L732.128 812.073L730.513 806.475C728.791 800.661 724.161 793.449 719.209 788.927C715.118 785.051 706.075 781.068 699.939 780.315L694.556 779.669L694.018 748.879C693.157 700.65 687.236 668.031 672.702 630.674C659.999 598.163 638.253 566.727 617.153 550.579L611.124 545.842L618.014 544.981C667.858 539.06 701.016 531.955 726.638 521.835C731.051 520.005 735.035 518.498 735.358 518.498C735.788 518.39 739.879 521.082 744.508 524.419ZM463.421 548.641C492.058 550.041 560.849 549.395 586.901 547.457L602.727 546.273L609.509 550.794C618.875 557.038 635.239 573.94 644.066 586.213C660.43 609.251 675.824 646.715 682.391 679.442C688.097 707.755 689.281 719.813 689.389 750.602C689.497 765.997 689.174 779.023 688.851 779.346C688.528 779.776 685.298 780.745 681.853 781.714C658.815 787.635 638.253 810.889 622.751 848.245C618.229 859.226 613.169 878.281 611.339 891.307L610.047 900.673L605.31 904.01C571.399 927.264 494.857 932.539 444.151 914.883C424.02 907.993 413.362 900.673 413.362 894.106C413.362 888.831 409.379 870.314 405.718 858.687C401.95 846.845 391.938 825.853 385.264 815.518C378.051 804.429 363.625 790.865 354.259 786.128C349.845 783.867 344.355 781.822 342.094 781.391C338.865 780.961 337.573 780.099 336.819 778.162C335.204 773.963 335.635 731.978 337.465 714.537C344.786 644.885 372.991 583.521 411.424 554.024L421.436 546.273L429.51 546.811C433.924 547.134 449.211 547.995 463.421 548.641ZM338.649 785.482C372.345 791.618 402.919 840.386 409.163 897.874C413.362 936.845 402.273 966.235 379.02 978.507C368.362 984.105 359.211 985.935 345.539 985.29C321.532 984.213 298.602 972.586 274.379 949.333C251.341 927.156 236.269 900.35 230.348 871.606C224.427 842.216 231.533 821.223 250.695 812.18C261.03 807.228 278.363 808.951 288.59 815.841C291.819 817.994 292.358 819.07 293.004 824.238C294.403 835.219 302.047 851.475 305.492 850.829C307.968 850.398 307.752 849.537 303.123 840.063C295.695 824.884 295.48 811.965 302.477 799.693C306.138 793.341 311.52 789.25 320.025 786.343C326.592 784.083 329.929 783.867 338.649 785.482ZM708.552 787.635C727.391 797.001 732.236 817.348 721.147 840.171C718.025 846.522 717.056 849.429 717.918 850.29C720.932 853.305 729.329 837.695 731.267 825.314C732.343 818.424 732.559 817.886 736.757 815.195C757.965 801.953 785.417 811.104 794.46 834.573C802.104 854.274 792.199 894.644 772.283 924.249C752.475 953.854 720.824 977.431 692.511 983.89C676.686 987.443 657.308 985.182 644.497 978.4C636.207 973.986 625.98 963.328 622.212 955.254C616.83 943.627 615.538 937.06 614.999 917.79C614.353 896.259 616.507 881.187 623.181 860.733C636.961 818.963 660.537 790.649 685.729 785.374C692.834 783.975 703.169 784.944 708.552 787.635ZM417.13 907.024C418.314 908.962 434.57 916.606 444.366 919.943C455.455 923.603 471.388 926.941 485.383 928.555C498.517 930.063 530.06 930.063 542.763 928.448C564.725 925.864 588.301 919.082 601.758 911.546C605.633 909.393 608.971 907.455 609.294 907.347C609.617 907.132 609.94 912.192 610.047 918.436C610.263 932.431 612.739 945.242 616.937 954.285C618.66 958.053 619.952 961.283 619.844 961.39C618.767 962.467 602.296 966.773 589.593 969.357C561.064 975.278 549.33 976.354 513.481 976.354C478.17 976.462 463.96 975.278 437.584 969.895C427.357 967.849 405.18 962.251 403.996 961.498C403.888 961.39 404.965 958.806 406.472 955.684C410.993 946.211 413.469 934.476 414.115 919.62C414.654 907.024 415.407 904.225 417.13 907.024Z" fill="black"/>
<path d="M230.671 34.9121C215.923 39.003 201.928 47.1848 190.409 58.5962C159.942 89.0625 152.945 135.031 173.507 170.127C175.983 174.433 181.688 181.43 186.641 186.275C197.191 196.825 209.033 203.177 223.028 205.976L232.071 207.806L229.487 213.727C225.181 223.523 217.861 246.885 214.954 260.126C212.047 273.045 209.679 289.731 207.741 312.769C207.095 320.198 205.157 336.346 203.327 348.834C197.514 390.066 198.16 410.305 205.803 434.312C216.246 467.147 241.437 495.137 275.887 512.039C279.87 513.976 283.099 515.914 283.099 516.237C283.099 516.56 280.623 518.39 277.609 520.436C268.889 526.357 249.942 543.043 239.391 554.132C203.865 591.488 173.291 643.593 159.835 690.1C150.146 723.688 149.93 754.047 159.296 772.456C167.155 787.743 183.411 794.956 199.667 790.327C210.325 787.205 217.322 782.468 230.241 769.441C237.884 761.798 242.191 758.138 241.76 759.753C241.329 761.044 240.683 773.64 240.36 787.528L239.714 812.826L235.516 817.671C227.011 827.252 223.889 836.618 223.889 852.228C223.889 895.29 252.633 943.842 294.403 971.51C313.781 984.321 330.791 990.026 349.307 990.026C368.362 989.919 382.034 984.644 394.415 972.586C401.197 965.912 402.058 965.373 404.642 966.45C416.591 970.971 454.163 978.077 476.878 980.23C492.811 981.629 533.074 981.629 549.007 980.23C571.292 978.184 607.033 971.294 619.952 966.45C622.105 965.696 623.397 966.558 628.995 972.156C641.267 984.213 656.447 989.919 676.147 989.919C699.616 989.919 721.47 980.553 746.338 959.991C778.204 933.615 800.919 889.261 800.919 853.628C800.919 838.018 797.905 828.436 789.939 818.64L785.094 812.719L784.448 787.958C784.018 774.394 783.372 761.583 783.049 759.537L782.295 755.769L785.309 759.537C792.092 767.934 803.934 779.453 810.07 783.437C832.247 797.97 856.254 792.587 866.266 770.733C875.201 751.14 873.586 716.368 862.175 681.918C848.826 641.547 825.895 600.746 797.474 567.158C786.601 554.347 764.101 533.031 752.152 524.311C746.554 520.113 741.817 516.56 741.817 516.237C741.709 515.914 744.939 513.976 749.03 512.039C761.195 506.118 779.927 492.984 788.754 484.156C808.994 464.025 820.943 438.726 824.604 408.044C826.218 394.479 825.465 379.838 821.374 348.834C819.651 335.808 817.391 316.86 816.529 306.848C815.561 296.729 814.161 283.918 813.192 278.32C809.962 257.435 802.319 230.198 795.429 214.911C793.707 211.143 792.307 207.914 792.307 207.698C792.307 207.483 793.922 207.268 795.86 207.268C805.549 207.268 821.804 200.593 832.032 192.411C845.489 181.538 856.577 164.529 860.883 148.057C863.467 138.368 863.467 115.546 860.991 106.395C851.517 72.053 829.125 46.7541 799.197 36.5269C792.199 34.1585 788.216 33.5126 776.697 33.082C759.903 32.5437 753.228 33.8356 739.018 40.8331C727.068 46.7541 716.949 55.0436 709.628 64.7325C703.922 72.376 695.525 88.3089 693.157 95.9524L691.757 100.366L677.655 92.9381C640.191 73.5602 601.758 61.8258 556.005 55.7972C537.596 53.4287 493.134 53.1058 475.802 55.2589C437.799 59.888 407.118 67.3162 377.943 78.8353C365.025 83.8951 345.216 93.4764 337.68 98.2132C335.42 99.6127 333.374 100.689 333.267 100.474C333.159 100.259 332.082 97.6749 331.006 94.7682C325.515 79.5889 314.535 62.0411 305.707 53.967C298.279 47.2924 287.19 40.5102 277.717 37.0652C269.32 33.9432 267.274 33.6202 253.494 33.2973C241.006 32.9743 237.023 33.1896 230.671 34.9121ZM268.028 39.7566C288.052 44.601 303.123 55.6895 315.181 74.2061C320.133 81.742 328.314 99.1821 328.314 102.196C328.314 102.95 324.331 106.287 319.487 109.517C314.535 112.854 308.506 117.053 306.03 118.883L301.616 122.22L300.862 119.098C299.786 114.254 292.681 103.919 286.975 98.8591C284.068 96.2754 279.008 92.9381 275.671 91.3233C270.396 88.8472 268.243 88.4166 259.415 88.3089C249.942 88.3089 248.65 88.6319 242.083 91.7539C233.148 96.1677 224.966 104.672 220.337 114.361C217.107 121.251 216.892 122.436 216.892 133.524C216.892 144.612 217.107 145.797 220.337 152.579C224.75 162.053 232.502 169.696 241.975 174.218L249.296 177.77L241.975 190.043C237.884 196.825 234.332 202.531 234.116 202.746C233.255 203.715 215.815 199.516 210.217 197.04C191.162 188.536 175.229 169.588 169.523 148.596C166.832 138.691 166.294 121.144 168.232 110.916C174.691 76.6822 201.066 47.5077 232.394 39.8642C240.253 38.0341 260.492 37.9264 268.028 39.7566ZM800.058 42.2326C822.02 50.9527 839.568 67.8545 850.01 90.462C855.285 101.873 857.008 109.409 857.654 122.866C859.161 154.84 844.089 182.292 817.929 195.426C809.962 199.409 795.321 203.5 791.876 202.746C790.908 202.638 786.817 196.825 782.726 190.043L775.405 177.77L782.51 174.218C793.061 169.158 799.089 163.344 803.826 153.655C807.809 145.689 807.917 145.151 807.917 133.632C807.917 122.436 807.702 121.251 804.472 114.361C799.843 104.565 791.015 95.4142 782.295 91.4309C776.482 88.6319 774.329 88.3089 765.393 88.3089C756.243 88.3089 754.52 88.6319 748.707 91.4309C739.987 95.7371 731.374 104.672 726.53 114.469L722.762 122.328L715.764 117.053C711.996 114.146 705.86 109.84 702.2 107.364L695.525 102.842L698.324 96.1677C708.659 70.7612 720.717 56.1201 739.664 46.3235C753.013 39.4336 758.611 38.2494 776.697 38.5724C790.585 38.8953 792.415 39.2183 800.058 42.2326ZM564.079 61.8258C662.368 76.4669 739.771 124.804 781.434 197.471C798.336 226.968 806.517 256.574 811.685 306.848C812.869 318.69 815.238 337.853 816.745 349.372C819.221 366.704 819.651 374.348 819.651 392.972C819.651 414.073 819.436 416.226 816.745 426.345C800.058 488.247 743.001 523.665 637.284 537.768C600.251 542.613 579.796 543.689 513.481 543.689C448.888 543.689 435.539 543.151 395.599 538.737C336.927 532.385 292.142 518.606 259.415 496.752C247.573 488.893 231.64 473.498 224.966 463.594C218.291 453.582 211.294 438.187 207.956 426.13C205.265 416.226 205.157 414.18 205.157 391.896C205.05 370.903 205.48 365.413 208.495 343.989C210.432 330.64 212.693 311.478 213.662 301.466C219.906 235.366 239.391 190.366 279.87 148.703C315.611 111.778 364.271 84.541 419.498 70.4382C438.876 65.4861 454.809 62.5794 470.957 60.9646C477.524 60.3187 484.306 59.5651 486.029 59.3498C487.859 59.1345 502.823 59.0268 519.402 59.2421C542.548 59.5651 552.883 60.1033 564.079 61.8258ZM273.195 95.9524C283.961 100.689 291.819 109.194 296.233 120.605L297.956 124.912L283.638 138.691C275.779 146.227 265.552 156.993 261.03 162.591C256.401 168.189 252.095 172.818 251.341 172.818C248.004 172.818 236.592 165.82 231.963 160.868C222.813 151.072 219.152 138.584 221.736 125.988C227.119 100.151 251.234 86.0482 273.195 95.9524ZM773.037 93.584C785.309 96.383 794.245 104.134 800.166 116.622C803.073 122.758 803.395 124.804 803.395 132.878C803.288 144.828 800.596 152.364 793.276 160.33C788.109 166.036 776.912 172.926 773.037 172.818C772.068 172.71 769.161 169.696 766.47 166.036C763.778 162.376 753.874 151.718 744.508 142.244L727.391 125.127L728.791 121.251C731.697 112.854 739.448 102.95 747.092 97.8902C750.752 95.4142 760.657 92.2922 764.855 92.1845C766.039 92.1845 769.7 92.7228 773.037 93.584ZM299.786 522.696C325.192 532.708 361.257 540.244 407.225 545.089L414.546 545.842L407.979 550.579C380.85 570.28 353.936 616.787 341.771 664.801C334.235 694.621 331.221 720.566 331.221 755.339L331.329 779.669L325.623 780.315C310.659 781.822 299.14 791.403 294.295 806.259C293.327 809.274 292.358 811.858 292.25 812.073C292.142 812.288 290.312 811.427 288.374 810.243C277.717 804.106 258.339 802.922 248.757 807.874L244.021 810.35L244.667 791.08C246.712 727.456 266.736 648.007 292.25 601.823C297.848 591.703 298.602 588.258 294.618 589.765C292.465 590.627 278.793 617.971 272.011 635.196C260.6 664.263 250.695 701.834 244.99 737.791C243.375 747.803 243.267 747.91 236.269 756.308C216.676 779.884 199.344 789.788 183.626 786.451C167.37 783.114 158.543 767.827 157.466 741.128C154.667 674.705 212.262 573.079 280.085 524.527C284.93 521.082 289.343 518.498 289.989 518.821C290.635 519.144 295.049 520.866 299.786 522.696ZM744.508 524.419C783.264 552.086 816.099 592.457 840.213 641.655C862.606 687.408 871.326 725.195 866.158 754.37C862.283 775.901 851.625 786.882 834.723 786.882C828.048 786.882 826.003 786.451 818.575 782.791C811.793 779.453 808.025 776.547 800.381 768.796C786.924 755.231 780.896 745.973 779.388 736.284C775.405 711.093 768.085 679.873 761.087 657.803C752.152 629.921 733.42 589.442 729.329 589.442C726.207 589.442 726.745 591.811 731.482 599.993C757.212 644.239 777.774 725.088 780.142 791.511C780.465 801.738 780.573 810.135 780.25 810.135C780.034 810.135 777.666 809.058 774.975 807.659C770.884 805.614 768.515 805.291 758.396 805.291C747.307 805.291 746.123 805.506 739.341 808.736L732.128 812.073L730.513 806.475C728.791 800.661 724.161 793.449 719.209 788.927C715.118 785.051 706.075 781.068 699.939 780.315L694.556 779.669L694.018 748.879C693.157 700.65 687.236 668.031 672.702 630.674C659.999 598.163 638.253 566.727 617.153 550.579L611.124 545.842L618.014 544.981C667.858 539.06 701.016 531.955 726.638 521.835C731.051 520.005 735.035 518.498 735.358 518.498C735.788 518.39 739.879 521.082 744.508 524.419ZM463.421 548.641C492.058 550.041 560.849 549.395 586.901 547.457L602.727 546.273L609.509 550.794C618.875 557.038 635.239 573.94 644.066 586.213C660.43 609.251 675.824 646.715 682.391 679.442C688.097 707.755 689.281 719.813 689.389 750.602C689.497 765.997 689.174 779.023 688.851 779.346C688.528 779.776 685.298 780.745 681.853 781.714C658.815 787.635 638.253 810.889 622.751 848.245C618.229 859.226 613.169 878.281 611.339 891.307L610.047 900.673L605.31 904.01C571.399 927.264 494.857 932.539 444.151 914.883C424.02 907.993 413.362 900.673 413.362 894.106C413.362 888.831 409.379 870.314 405.718 858.687C401.95 846.845 391.938 825.853 385.264 815.518C378.051 804.429 363.625 790.865 354.259 786.128C349.845 783.867 344.355 781.822 342.094 781.391C338.865 780.961 337.573 780.099 336.819 778.162C335.204 773.963 335.635 731.978 337.465 714.537C344.786 644.885 372.991 583.521 411.424 554.024L421.436 546.273L429.51 546.811C433.924 547.134 449.211 547.995 463.421 548.641ZM338.649 785.482C372.345 791.618 402.919 840.386 409.163 897.874C413.362 936.845 402.273 966.235 379.02 978.507C368.362 984.105 359.211 985.935 345.539 985.29C321.532 984.213 298.602 972.586 274.379 949.333C251.341 927.156 236.269 900.35 230.348 871.606C224.427 842.216 231.533 821.223 250.695 812.18C261.03 807.228 278.363 808.951 288.59 815.841C291.819 817.994 292.358 819.07 293.004 824.238C294.403 835.219 302.047 851.475 305.492 850.829C307.968 850.398 307.752 849.537 303.123 840.063C295.695 824.884 295.48 811.965 302.477 799.693C306.138 793.341 311.52 789.25 320.025 786.343C326.592 784.083 329.929 783.867 338.649 785.482ZM708.552 787.635C727.391 797.001 732.236 817.348 721.147 840.171C718.025 846.522 717.056 849.429 717.918 850.29C720.932 853.305 729.329 837.695 731.267 825.314C732.343 818.424 732.559 817.886 736.757 815.195C757.965 801.953 785.417 811.104 794.46 834.573C802.104 854.274 792.199 894.644 772.283 924.249C752.475 953.854 720.824 977.431 692.511 983.89C676.686 987.443 657.308 985.182 644.497 978.4C636.207 973.986 625.98 963.328 622.212 955.254C616.83 943.627 615.538 937.06 614.999 917.79C614.353 896.259 616.507 881.187 623.181 860.733C636.961 818.963 660.537 790.649 685.729 785.374C692.834 783.975 703.169 784.944 708.552 787.635ZM417.13 907.024C418.314 908.962 434.57 916.606 444.366 919.943C455.455 923.603 471.388 926.941 485.383 928.555C498.517 930.063 530.06 930.063 542.763 928.448C564.725 925.864 588.301 919.082 601.758 911.546C605.633 909.393 608.971 907.455 609.294 907.347C609.617 907.132 609.94 912.192 610.047 918.436C610.263 932.431 612.739 945.242 616.937 954.285C618.66 958.053 619.952 961.283 619.844 961.39C618.767 962.467 602.296 966.773 589.593 969.357C561.064 975.278 549.33 976.354 513.481 976.354C478.17 976.462 463.96 975.278 437.584 969.895C427.357 967.849 405.18 962.251 403.996 961.498C403.888 961.39 404.965 958.806 406.472 955.684C410.993 946.211 413.469 934.476 414.115 919.62C414.654 907.024 415.407 904.225 417.13 907.024Z" stroke="black" stroke-width="1.5" mask="url(#path-1-outside-1_53_4020)"/>
<path d="M316.766 241.635C316.98 241.722 317.22 241.685 317.414 241.63C317.627 241.569 317.871 241.461 318.133 241.32C318.659 241.038 319.317 240.594 320.063 240.023C321.561 238.88 323.457 237.2 325.457 235.2H325.456C329.686 231.024 333.574 228.262 337.613 226.699C341.648 225.138 345.862 224.763 350.765 225.402H350.767C355.872 226.047 359.028 226.349 360.909 226.267C361.843 226.226 362.529 226.089 362.987 225.803C363.226 225.654 363.405 225.463 363.521 225.229C363.635 224.999 363.676 224.748 363.676 224.492C363.676 223.813 363.261 223.243 362.655 222.781C362.047 222.317 361.19 221.916 360.169 221.574C358.122 220.89 355.319 220.413 352.255 220.176C346.137 219.703 338.857 220.183 334.312 221.99V221.991C331.199 223.193 327.615 225.395 324.462 227.871C321.312 230.345 318.553 233.123 317.119 235.494V235.495C316.5 236.492 316.028 237.304 315.702 237.974C315.378 238.638 315.182 239.193 315.143 239.667C315.101 240.164 315.233 240.576 315.547 240.91C315.841 241.223 316.27 241.443 316.766 241.636V241.635Z" fill="black" stroke="black" stroke-width="0.75"/>
<path d="M706.514 241.704C706.918 241.842 707.306 241.882 707.665 241.793L707.817 241.747L707.831 241.741C708.431 241.496 708.936 241.226 709.256 240.845C709.601 240.434 709.696 239.941 709.577 239.355C709.463 238.793 709.15 238.123 708.663 237.298C708.172 236.467 707.485 235.447 706.597 234.182L706.592 234.175C702.666 228.832 695.818 223.944 688.755 221.554L688.754 221.555C685.738 220.513 681.226 219.973 676.797 219.919C672.368 219.865 667.959 220.296 665.154 221.23L665.152 221.231C663.939 221.645 662.982 222.154 662.307 222.69C661.643 223.217 661.2 223.809 661.12 224.402C661.079 224.709 661.137 225.01 661.306 225.273C661.471 225.533 661.727 225.733 662.043 225.878C662.666 226.165 663.584 226.268 664.77 226.158H664.769C678.755 224.975 684.047 225.416 690.084 228.382L690.085 228.383C693.805 230.19 698.072 233.494 700.947 236.796C702.566 238.685 703.906 240.028 705.002 240.847C705.55 241.256 706.054 241.547 706.514 241.704Z" fill="black" stroke="black" stroke-width="0.75"/>
<path d="M346.242 375.334C359.097 381.326 374.559 378.164 384.355 367.497C396.943 353.825 401.161 332.472 395.095 313.623C391.958 303.834 387.323 296.26 381.404 291.144C375.48 286.023 368.287 283.383 360.072 283.437V283.436L360.071 283.437L360.07 283.436V283.437C358.008 283.437 355.679 283.598 353.595 283.855C351.517 284.112 349.653 284.465 348.537 284.855L348.535 284.856C339.54 288.073 331.967 295.773 327.038 305.44C322.108 315.111 319.803 326.788 321.376 338.013C323.758 355.011 333.184 369.24 346.242 375.334ZM371.627 326.269C370.03 326.231 368.369 325.432 366.802 323.812L366.793 323.804C365.114 322.176 364.187 319.327 364.107 316.325C364.033 313.515 364.705 310.656 366.105 308.654L366.395 308.266L366.396 308.265C369.052 304.893 373.52 304.689 376.485 307.858C380.549 312.344 380.547 319.546 376.272 324.029L376.27 324.032C374.818 325.587 373.22 326.306 371.627 326.269Z" fill="black" stroke="black" stroke-width="0.75"/>
<path d="M665.907 378.208C670.562 378.194 675.271 377.354 679.096 375.66L679.417 375.516C682.76 373.972 686.824 370.766 690.435 367.13C694.162 363.375 697.455 359.111 698.989 355.66L699.513 354.444C710.216 328.857 702.354 299.551 681.073 287.039L681.067 287.035L680.884 287.362L681.066 287.035C678.845 285.789 677.116 284.99 674.971 284.468C672.834 283.947 670.3 283.706 666.475 283.544L666.476 283.543C662.073 283.328 659.629 283.269 657.448 283.711C655.262 284.154 653.357 285.096 650.029 286.813V286.814C641.75 291.064 634.375 299.972 630.474 310.159V310.16C628.947 314.088 627.921 320.104 627.503 326.24C627.085 332.381 627.271 338.689 628.195 343.203L628.196 343.206C631.124 356.977 641.418 370.65 652.955 375.767C656.621 377.408 661.252 378.222 665.907 378.208ZM656.013 325.598C654.993 326.326 653.575 326.517 652.07 326.195C650.569 325.875 649.018 325.05 647.775 323.808L647.769 323.801C646.72 322.804 646.09 321.938 645.712 320.83C645.329 319.707 645.194 318.305 645.194 316.214C645.194 312.076 646.362 308.992 648.262 307.245C650.14 305.518 652.806 305.033 655.98 306.227C656.492 306.436 657.045 306.889 657.59 307.551C658.131 308.208 658.646 309.048 659.094 309.995C659.99 311.893 660.592 314.18 660.592 316.214C660.592 317.863 660.049 319.798 659.191 321.539C658.333 323.283 657.184 324.783 656.017 325.595L656.013 325.598Z" fill="black" stroke="black" stroke-width="0.75"/>
<path d="M484.374 493.794C526.043 502.825 568.88 492.002 589.451 466.954L589.899 466.403C608.745 442.967 609.21 405.879 591.209 374.484C588.28 369.386 583.492 363.545 578.148 358.256C572.805 352.966 566.884 348.206 561.678 345.277L561.677 345.276C544.161 335.545 520.287 331.228 498.36 334.036V334.037C487.124 335.442 478.041 338.144 467.563 343.221V343.222C449.939 351.656 439.651 361.945 430.788 379.888C424.091 393.39 421.494 403.345 420.846 418.254L420.793 419.604C420.336 433.452 422.542 444.573 428.206 455.796V455.797C437.205 473.579 457.341 487.518 482.391 493.349L484.374 493.794ZM518.31 490.778C483.829 492.153 452.975 480.716 438.562 461.498L437.889 460.577C423.98 441.105 421.929 416.804 432.013 390.631L432.36 389.738C447.278 352.096 484.96 333.244 530.537 340.592C555.198 344.666 575.977 358.494 587.111 378.406C605.353 411.026 602.31 448.288 579.648 469.239V469.24C564.985 482.833 545.489 489.704 518.31 490.778Z" fill="black" stroke="black" stroke-width="0.75"/>
<path d="M515.497 442.672C528.839 454.045 551.918 449.09 562.35 432.574H562.349C563.532 430.798 564.259 429.469 564.571 428.432C564.891 427.371 564.793 426.559 564.263 425.896L564.256 425.888C563.788 425.338 563.341 424.918 562.892 424.678C562.426 424.429 561.948 424.368 561.466 424.556C561.008 424.734 560.593 425.118 560.189 425.646C559.783 426.177 559.361 426.893 558.9 427.787C557.69 430.103 555.463 432.76 552.844 435.152C550.226 437.543 547.245 439.643 544.546 440.86H544.545C541.266 442.341 537.258 443.061 533.317 443.034C529.376 443.008 525.533 442.234 522.583 440.759C518.929 438.878 517.087 437.614 516.092 434.974C515.586 433.632 515.293 431.915 515.129 429.548C514.965 427.182 514.932 424.193 514.932 420.316V406.971L519.237 406.37L519.242 406.369C524.914 405.497 531.078 402.64 536.308 398.847C541.534 395.056 545.871 390.296 547.845 385.581L548.019 385.152C549.766 380.736 549.893 376.767 548.506 373.351C547.075 369.828 544.059 366.954 539.698 364.794C530.99 360.481 516.802 358.954 498.585 360.841L498.584 360.842C489.383 361.816 482.569 364.88 478.821 369.427C475.053 373.999 474.443 379.998 477.505 386.67C479.428 390.953 483.631 395.359 488.678 398.931C493.729 402.506 499.672 405.278 505.12 406.26L508.799 406.956V434.578L505.152 437.911L505.146 437.916V437.917C498.515 444.232 487.721 444.911 477.156 439.469L477.152 439.467C474.945 438.363 472.369 436.27 470.138 433.932C467.904 431.591 466.058 429.049 465.276 427.069L465.275 427.07C464.595 425.208 463.255 424.291 462.01 424.51C460.738 424.733 459.913 426.069 460.141 428.004C460.338 429.725 461.158 431.611 462.395 433.503C463.634 435.399 465.307 437.322 467.242 439.121C471.108 442.716 476.055 445.847 480.751 447.267L481.237 447.41C486.272 448.859 491.658 449.062 496.51 448.191C501.514 447.294 505.982 445.249 508.905 442.216L511.672 439.35L515.494 442.669L515.497 442.672Z" fill="black" stroke="black" stroke-width="0.75"/>
</svg>
