<svg width="1024" height="1024" viewBox="0 0 1024 1024" fill="none" xmlns="http://www.w3.org/2000/svg">
<mask id="path-1-outside-1_31_487" maskUnits="userSpaceOnUse" x="187.549" y="33.0145" width="650" height="958" fill="black">
<rect fill="white" x="187.549" y="33.0145" width="650" height="958"/>
<path d="M262.927 38.6705C256.976 40.6001 248.337 44.4594 243.73 47.1609C233.364 53.1429 217.047 70.3168 211.864 80.5439C191.132 121.453 204.185 170.659 242.194 195.165L251.793 201.34L248.145 208.287C240.851 222.952 230.868 252.862 226.261 274.281C218.391 310.173 216.279 329.276 216.471 362.08C216.663 387.359 217.431 395.656 220.694 408.199C232.212 450.266 259.663 487.894 296.521 511.821L313.222 522.628L304.199 530.153C250.257 573.763 207.257 640.529 192.283 703.243C183.069 741.643 191.132 771.167 213.975 782.745C219.35 785.446 225.493 787.569 227.605 787.569C231.252 787.569 231.252 787.762 227.221 792.007C220.886 798.761 211.672 820.18 208.408 836.003C196.89 890.226 227.989 957.185 275.788 981.113C290.378 988.639 301.704 990.761 320.516 989.797C347.583 988.253 370.811 974.938 385.401 951.975L392.887 940.397L399.606 943.871C425.137 956.992 455.66 961.817 511.906 961.817C567.768 961.817 593.299 957.764 629.965 943.099C631.884 942.327 633.996 944.064 636.491 948.695C642.442 959.694 661.255 976.289 675.46 983.043C687.746 988.832 689.666 989.218 710.59 989.218C732.09 989.218 733.05 989.025 747.831 981.885C769.907 971.272 789.488 951.203 801.39 926.504C813.868 901.032 816.939 887.911 817.131 859.931C817.131 833.109 813.1 816.9 801.966 799.34L795.439 788.727L804.845 785.639C839.015 773.868 845.542 730.451 822.122 671.211C804.269 625.864 780.658 589.779 747.064 555.818C733.818 542.503 720.572 529.574 717.309 527.066C714.237 524.75 712.51 522.242 713.662 521.856C714.813 521.47 722.108 517.032 729.595 511.821C765.684 487.701 791.792 451.23 803.117 408.585C808.684 387.938 809.068 336.416 804.077 304.191C798.51 268.878 787.568 231.636 774.323 202.498C773.939 201.919 778.546 198.06 784.689 194.008C811.756 175.869 827.497 140.17 821.93 108.91C817.707 84.2103 801.39 60.0896 780.466 47.1609C755.894 32.1096 723.068 31.3378 696.385 45.0383C685.443 50.6343 668.742 67.0364 662.215 78.6143L656.648 88.6485L643.786 83.2455C625.741 75.5268 600.21 68.3871 574.295 63.563C544.732 58.16 482.727 57.774 455.276 62.5982C424.37 68.3871 393.463 77.4565 369.851 88.2626C368.7 88.6485 366.012 85.3681 363.708 80.9299C346.624 45.6172 300.936 26.5137 262.927 38.6705ZM323.204 46.1961C337.217 53.1429 352.766 67.4223 360.445 80.5439C363.325 85.3681 365.244 89.4203 364.86 89.8063C364.476 89.9992 357.374 94.2445 349.311 99.0686L334.53 107.945L329.731 99.8405C315.333 75.1409 280.971 71.0886 259.087 91.543C244.114 105.436 240.275 131.873 250.449 149.433C253.52 154.45 259.279 161.01 263.311 164.098L270.605 169.308L262.159 182.816C257.36 190.148 252.752 196.323 251.985 196.709C248.529 197.867 227.413 179.728 220.694 169.887C208.984 152.906 205.145 139.591 206.105 117.979C206.681 103.121 207.833 97.5249 212.056 88.2626C218.967 73.2113 228.757 61.4404 241.618 52.9499C258.511 41.5649 269.07 38.6705 291.338 39.2494C308.422 39.8283 311.878 40.6001 323.204 46.1961ZM770.099 45.8102C825.385 72.4394 836.903 142.293 792.559 182.816C780.274 194.201 771.827 199.218 770.675 195.744C770.291 194.393 766.452 188.026 762.229 181.465C758.006 174.904 754.742 169.501 755.126 169.308C763.381 164.484 770.867 156.572 774.899 147.889C779.506 138.626 780.082 135.539 779.314 123.189C778.738 111.611 777.778 107.366 773.363 100.998C761.653 83.0525 740.537 74.562 721.532 80.158C710.014 83.6314 699.456 91.543 694.465 100.998L690.818 107.752L676.612 99.4545C668.742 95.0163 661.831 90.7711 661.255 90.3852C659.719 88.6485 667.782 74.755 676.036 65.2997C692.161 46.968 712.51 38.6705 739.385 39.2494C755.318 39.8283 759.157 40.6001 770.099 45.8102ZM555.098 64.1419C595.411 69.159 625.357 77.8424 657.8 93.6656C671.621 100.419 689.666 111.225 698.112 117.593C716.349 131.294 743.224 158.695 754.166 174.904C786.225 222.566 805.229 292.034 805.037 362.08C805.037 384.464 804.269 392.183 800.238 407.62C778.546 490.981 708.095 539.994 584.853 557.168C554.138 561.607 479.848 562.185 449.517 558.326C350.271 545.976 282.699 512.593 246.993 458.563C234.9 440.424 226.069 419.391 221.846 398.358C214.935 365.554 221.654 293.385 235.668 248.81C256.592 182.044 297.672 130.908 356.414 98.6827C385.593 82.6666 425.329 70.1238 462.187 65.1067C485.607 61.8263 533.214 61.2474 555.098 64.1419ZM308.422 84.9821C316.101 88.6485 323.588 95.5952 329.155 104.472C332.226 109.489 332.226 109.489 319.364 119.33C306.887 128.785 285.962 149.626 277.132 161.203L272.909 166.799L265.422 161.589C243.154 145.959 242.002 110.454 263.311 92.5078C276.556 81.1228 294.025 78.2284 308.422 84.9821ZM755.894 88.2626C772.979 98.8756 781.041 119.523 775.666 138.626C773.171 147.696 757.046 167.378 753.206 166.028C752.247 165.642 746.296 159.081 739.769 151.362C729.595 139.591 719.037 129.943 697.536 112.769L693.121 109.296L698.688 100.419C710.782 81.3158 736.122 75.9128 755.894 88.2626ZM332.994 531.89C385.401 555.818 465.834 567.974 544.732 563.536C604.817 560.256 655.112 549.45 695.425 530.732L708.67 524.557L715.773 529.96C729.787 540.38 767.412 580.324 780.082 598.463C802.734 630.688 821.354 670.246 829.801 704.401C839.783 744.538 828.265 776.377 801.198 783.71C790.256 786.604 788.528 785.06 792.943 776.377C797.55 767.308 800.046 751.87 797.167 750.134C795.823 749.169 795.055 751.291 795.055 756.501C795.055 763.062 790.256 779.85 788.336 779.85C788.144 779.85 782.961 776.956 777.202 773.289C771.251 769.816 763.573 765.764 760.117 764.413C756.662 762.869 753.59 761.519 753.206 761.326C752.823 761.133 753.782 758.431 755.318 755.344C759.541 747.239 761.077 741.257 758.965 741.257C758.006 741.257 756.662 743.766 756.086 746.66C755.51 749.748 753.398 753.993 751.479 756.308C748.407 760.168 746.872 760.361 737.657 759.203C727.867 758.045 727.291 757.659 723.836 750.134C721.532 744.924 720.188 737.784 720.188 729.293C720.188 718.294 721.148 714.628 727.099 703.243C734.01 690.121 734.01 690.121 731.898 676.421C728.059 650.564 701.376 579.166 695.617 579.166C694.657 579.166 697.92 587.271 702.912 597.112C713.662 618.724 724.604 651.142 728.827 673.912L731.898 690.7L726.907 698.033C716.349 713.663 714.046 735.082 721.148 752.256C723.836 758.431 723.644 758.624 718.653 759.589C699.456 763.641 689.282 768.079 675.844 778.307L667.398 784.867V753.993C667.206 718.294 663.943 701.892 651.081 674.491C623.054 614.093 574.295 581.096 512.866 581.096C462.379 581.096 422.45 601.55 391.735 643.038C379.066 660.212 366.012 688.385 361.021 709.611C356.606 728.136 355.262 759.203 357.95 777.728L359.485 787.955L351.231 781.008C340.673 771.939 321.86 762.869 310.534 761.326C305.543 760.554 301.32 759.396 300.936 758.817C300.36 758.045 301.896 752.449 304.007 746.081C306.887 737.591 307.463 731.802 306.695 724.469C305.543 714.049 299.4 698.033 294.985 693.016C289.226 686.648 304.007 633.776 320.9 599.621C330.69 579.745 332.61 572.606 323.972 587.271C312.07 607.918 297.48 649.599 292.297 677.579C289.994 690.121 289.994 690.121 296.713 703.243C302.663 714.435 303.623 718.294 303.623 729.293C303.623 738.17 302.472 744.345 299.784 750.134C296.137 757.466 294.985 758.238 286.922 759.396C276.556 760.747 273.869 759.01 268.878 748.011C266.958 743.766 265.422 741.836 265.422 743.766C265.23 745.695 266.958 750.52 268.878 754.572L272.717 761.904L265.23 764.22C261.199 765.378 253.328 769.43 247.953 773.096C242.386 776.763 237.203 779.271 236.051 778.692C232.596 776.57 228.757 764.799 228.565 756.308C228.565 749.748 228.181 748.783 226.837 752.063C224.917 756.694 227.413 769.623 231.636 777.921C235.092 784.481 233.94 785.832 226.069 784.288C203.033 779.85 188.444 754.958 191.132 724.662C195.163 679.315 225.301 617.759 266.958 569.711C278.86 556.011 313.03 525.136 316.293 525.136C317.445 525.136 325.123 528.224 332.994 531.89ZM531.87 584.955C591.188 592.481 640.907 638.793 658.759 703.05C664.902 725.048 666.822 749.169 664.518 770.202C662.599 787.762 662.023 789.113 651.849 804.55C640.523 821.145 631.116 841.406 629.005 853.563C626.509 866.685 596.371 891.191 569.112 902.383C543.964 912.61 508.067 915.891 481.767 910.295C453.932 904.313 423.026 887.911 405.941 870.158C400.182 864.176 397.11 858.58 394.615 850.283C390.584 835.424 380.026 814.391 370.811 801.848C361.981 790.077 359.293 777.921 359.293 750.52C359.293 717.715 368.124 686.455 385.209 658.475C411.124 616.409 446.638 591.709 490.79 585.148C507.107 582.833 513.826 582.833 531.87 584.955ZM317.445 766.343C344.896 774.833 367.356 796.252 383.481 829.442C392.887 848.932 397.11 865.141 398.838 888.876C403.253 946.572 355.07 995.393 302.472 986.709C282.123 983.236 266.766 974.745 248.913 956.606C236.435 944.064 231.636 937.503 224.342 922.645C213.208 899.875 209.56 884.63 209.56 859.931C209.56 828.478 217.623 806.672 236.243 787.569C258.511 764.799 287.882 757.08 317.445 766.343ZM753.014 765.571C779.314 773.289 799.854 794.323 809.26 822.496C815.403 841.406 816.939 856.843 814.251 875.754C809.836 908.944 796.399 937.117 775.091 958.343C737.081 996.164 687.362 997.708 652.233 962.395C633.612 943.871 625.357 923.031 625.549 895.629C625.741 862.825 637.643 828.092 657.8 801.462C671.237 783.71 692.353 768.851 710.014 764.606C721.916 761.712 741.689 762.29 753.014 765.571ZM425.329 889.841C438.191 898.524 461.035 907.979 479.464 912.224C497.316 916.277 525.919 916.663 542.62 913.189C567.768 907.786 595.219 893.893 617.871 875.368L623.822 870.351L622.862 888.297C621.902 902.769 622.478 909.33 625.933 922.452C629.005 935.38 629.389 939.24 627.661 940.397C622.862 943.485 590.42 953.133 576.214 955.642C553.178 959.887 464.874 959.308 442.798 954.87C426.097 951.396 396.727 941.362 394.999 938.275C394.423 937.503 395.767 931.328 397.878 924.381C400.95 914.54 401.718 907.979 401.142 891.384L400.566 870.93L408.244 877.105C412.468 880.578 420.146 886.174 425.329 889.841Z"/>
</mask>
<path d="M262.927 38.6705C256.976 40.6001 248.337 44.4594 243.73 47.1609C233.364 53.1429 217.047 70.3168 211.864 80.5439C191.132 121.453 204.185 170.659 242.194 195.165L251.793 201.34L248.145 208.287C240.851 222.952 230.868 252.862 226.261 274.281C218.391 310.173 216.279 329.276 216.471 362.08C216.663 387.359 217.431 395.656 220.694 408.199C232.212 450.266 259.663 487.894 296.521 511.821L313.222 522.628L304.199 530.153C250.257 573.763 207.257 640.529 192.283 703.243C183.069 741.643 191.132 771.167 213.975 782.745C219.35 785.446 225.493 787.569 227.605 787.569C231.252 787.569 231.252 787.762 227.221 792.007C220.886 798.761 211.672 820.18 208.408 836.003C196.89 890.226 227.989 957.185 275.788 981.113C290.378 988.639 301.704 990.761 320.516 989.797C347.583 988.253 370.811 974.938 385.401 951.975L392.887 940.397L399.606 943.871C425.137 956.992 455.66 961.817 511.906 961.817C567.768 961.817 593.299 957.764 629.965 943.099C631.884 942.327 633.996 944.064 636.491 948.695C642.442 959.694 661.255 976.289 675.46 983.043C687.746 988.832 689.666 989.218 710.59 989.218C732.09 989.218 733.05 989.025 747.831 981.885C769.907 971.272 789.488 951.203 801.39 926.504C813.868 901.032 816.939 887.911 817.131 859.931C817.131 833.109 813.1 816.9 801.966 799.34L795.439 788.727L804.845 785.639C839.015 773.868 845.542 730.451 822.122 671.211C804.269 625.864 780.658 589.779 747.064 555.818C733.818 542.503 720.572 529.574 717.309 527.066C714.237 524.75 712.51 522.242 713.662 521.856C714.813 521.47 722.108 517.032 729.595 511.821C765.684 487.701 791.792 451.23 803.117 408.585C808.684 387.938 809.068 336.416 804.077 304.191C798.51 268.878 787.568 231.636 774.323 202.498C773.939 201.919 778.546 198.06 784.689 194.008C811.756 175.869 827.497 140.17 821.93 108.91C817.707 84.2103 801.39 60.0896 780.466 47.1609C755.894 32.1096 723.068 31.3378 696.385 45.0383C685.443 50.6343 668.742 67.0364 662.215 78.6143L656.648 88.6485L643.786 83.2455C625.741 75.5268 600.21 68.3871 574.295 63.563C544.732 58.16 482.727 57.774 455.276 62.5982C424.37 68.3871 393.463 77.4565 369.851 88.2626C368.7 88.6485 366.012 85.3681 363.708 80.9299C346.624 45.6172 300.936 26.5137 262.927 38.6705ZM323.204 46.1961C337.217 53.1429 352.766 67.4223 360.445 80.5439C363.325 85.3681 365.244 89.4203 364.86 89.8063C364.476 89.9992 357.374 94.2445 349.311 99.0686L334.53 107.945L329.731 99.8405C315.333 75.1409 280.971 71.0886 259.087 91.543C244.114 105.436 240.275 131.873 250.449 149.433C253.52 154.45 259.279 161.01 263.311 164.098L270.605 169.308L262.159 182.816C257.36 190.148 252.752 196.323 251.985 196.709C248.529 197.867 227.413 179.728 220.694 169.887C208.984 152.906 205.145 139.591 206.105 117.979C206.681 103.121 207.833 97.5249 212.056 88.2626C218.967 73.2113 228.757 61.4404 241.618 52.9499C258.511 41.5649 269.07 38.6705 291.338 39.2494C308.422 39.8283 311.878 40.6001 323.204 46.1961ZM770.099 45.8102C825.385 72.4394 836.903 142.293 792.559 182.816C780.274 194.201 771.827 199.218 770.675 195.744C770.291 194.393 766.452 188.026 762.229 181.465C758.006 174.904 754.742 169.501 755.126 169.308C763.381 164.484 770.867 156.572 774.899 147.889C779.506 138.626 780.082 135.539 779.314 123.189C778.738 111.611 777.778 107.366 773.363 100.998C761.653 83.0525 740.537 74.562 721.532 80.158C710.014 83.6314 699.456 91.543 694.465 100.998L690.818 107.752L676.612 99.4545C668.742 95.0163 661.831 90.7711 661.255 90.3852C659.719 88.6485 667.782 74.755 676.036 65.2997C692.161 46.968 712.51 38.6705 739.385 39.2494C755.318 39.8283 759.157 40.6001 770.099 45.8102ZM555.098 64.1419C595.411 69.159 625.357 77.8424 657.8 93.6656C671.621 100.419 689.666 111.225 698.112 117.593C716.349 131.294 743.224 158.695 754.166 174.904C786.225 222.566 805.229 292.034 805.037 362.08C805.037 384.464 804.269 392.183 800.238 407.62C778.546 490.981 708.095 539.994 584.853 557.168C554.138 561.607 479.848 562.185 449.517 558.326C350.271 545.976 282.699 512.593 246.993 458.563C234.9 440.424 226.069 419.391 221.846 398.358C214.935 365.554 221.654 293.385 235.668 248.81C256.592 182.044 297.672 130.908 356.414 98.6827C385.593 82.6666 425.329 70.1238 462.187 65.1067C485.607 61.8263 533.214 61.2474 555.098 64.1419ZM308.422 84.9821C316.101 88.6485 323.588 95.5952 329.155 104.472C332.226 109.489 332.226 109.489 319.364 119.33C306.887 128.785 285.962 149.626 277.132 161.203L272.909 166.799L265.422 161.589C243.154 145.959 242.002 110.454 263.311 92.5078C276.556 81.1228 294.025 78.2284 308.422 84.9821ZM755.894 88.2626C772.979 98.8756 781.041 119.523 775.666 138.626C773.171 147.696 757.046 167.378 753.206 166.028C752.247 165.642 746.296 159.081 739.769 151.362C729.595 139.591 719.037 129.943 697.536 112.769L693.121 109.296L698.688 100.419C710.782 81.3158 736.122 75.9128 755.894 88.2626ZM332.994 531.89C385.401 555.818 465.834 567.974 544.732 563.536C604.817 560.256 655.112 549.45 695.425 530.732L708.67 524.557L715.773 529.96C729.787 540.38 767.412 580.324 780.082 598.463C802.734 630.688 821.354 670.246 829.801 704.401C839.783 744.538 828.265 776.377 801.198 783.71C790.256 786.604 788.528 785.06 792.943 776.377C797.55 767.308 800.046 751.87 797.167 750.134C795.823 749.169 795.055 751.291 795.055 756.501C795.055 763.062 790.256 779.85 788.336 779.85C788.144 779.85 782.961 776.956 777.202 773.289C771.251 769.816 763.573 765.764 760.117 764.413C756.662 762.869 753.59 761.519 753.206 761.326C752.823 761.133 753.782 758.431 755.318 755.344C759.541 747.239 761.077 741.257 758.965 741.257C758.006 741.257 756.662 743.766 756.086 746.66C755.51 749.748 753.398 753.993 751.479 756.308C748.407 760.168 746.872 760.361 737.657 759.203C727.867 758.045 727.291 757.659 723.836 750.134C721.532 744.924 720.188 737.784 720.188 729.293C720.188 718.294 721.148 714.628 727.099 703.243C734.01 690.121 734.01 690.121 731.898 676.421C728.059 650.564 701.376 579.166 695.617 579.166C694.657 579.166 697.92 587.271 702.912 597.112C713.662 618.724 724.604 651.142 728.827 673.912L731.898 690.7L726.907 698.033C716.349 713.663 714.046 735.082 721.148 752.256C723.836 758.431 723.644 758.624 718.653 759.589C699.456 763.641 689.282 768.079 675.844 778.307L667.398 784.867V753.993C667.206 718.294 663.943 701.892 651.081 674.491C623.054 614.093 574.295 581.096 512.866 581.096C462.379 581.096 422.45 601.55 391.735 643.038C379.066 660.212 366.012 688.385 361.021 709.611C356.606 728.136 355.262 759.203 357.95 777.728L359.485 787.955L351.231 781.008C340.673 771.939 321.86 762.869 310.534 761.326C305.543 760.554 301.32 759.396 300.936 758.817C300.36 758.045 301.896 752.449 304.007 746.081C306.887 737.591 307.463 731.802 306.695 724.469C305.543 714.049 299.4 698.033 294.985 693.016C289.226 686.648 304.007 633.776 320.9 599.621C330.69 579.745 332.61 572.606 323.972 587.271C312.07 607.918 297.48 649.599 292.297 677.579C289.994 690.121 289.994 690.121 296.713 703.243C302.663 714.435 303.623 718.294 303.623 729.293C303.623 738.17 302.472 744.345 299.784 750.134C296.137 757.466 294.985 758.238 286.922 759.396C276.556 760.747 273.869 759.01 268.878 748.011C266.958 743.766 265.422 741.836 265.422 743.766C265.23 745.695 266.958 750.52 268.878 754.572L272.717 761.904L265.23 764.22C261.199 765.378 253.328 769.43 247.953 773.096C242.386 776.763 237.203 779.271 236.051 778.692C232.596 776.57 228.757 764.799 228.565 756.308C228.565 749.748 228.181 748.783 226.837 752.063C224.917 756.694 227.413 769.623 231.636 777.921C235.092 784.481 233.94 785.832 226.069 784.288C203.033 779.85 188.444 754.958 191.132 724.662C195.163 679.315 225.301 617.759 266.958 569.711C278.86 556.011 313.03 525.136 316.293 525.136C317.445 525.136 325.123 528.224 332.994 531.89ZM531.87 584.955C591.188 592.481 640.907 638.793 658.759 703.05C664.902 725.048 666.822 749.169 664.518 770.202C662.599 787.762 662.023 789.113 651.849 804.55C640.523 821.145 631.116 841.406 629.005 853.563C626.509 866.685 596.371 891.191 569.112 902.383C543.964 912.61 508.067 915.891 481.767 910.295C453.932 904.313 423.026 887.911 405.941 870.158C400.182 864.176 397.11 858.58 394.615 850.283C390.584 835.424 380.026 814.391 370.811 801.848C361.981 790.077 359.293 777.921 359.293 750.52C359.293 717.715 368.124 686.455 385.209 658.475C411.124 616.409 446.638 591.709 490.79 585.148C507.107 582.833 513.826 582.833 531.87 584.955ZM317.445 766.343C344.896 774.833 367.356 796.252 383.481 829.442C392.887 848.932 397.11 865.141 398.838 888.876C403.253 946.572 355.07 995.393 302.472 986.709C282.123 983.236 266.766 974.745 248.913 956.606C236.435 944.064 231.636 937.503 224.342 922.645C213.208 899.875 209.56 884.63 209.56 859.931C209.56 828.478 217.623 806.672 236.243 787.569C258.511 764.799 287.882 757.08 317.445 766.343ZM753.014 765.571C779.314 773.289 799.854 794.323 809.26 822.496C815.403 841.406 816.939 856.843 814.251 875.754C809.836 908.944 796.399 937.117 775.091 958.343C737.081 996.164 687.362 997.708 652.233 962.395C633.612 943.871 625.357 923.031 625.549 895.629C625.741 862.825 637.643 828.092 657.8 801.462C671.237 783.71 692.353 768.851 710.014 764.606C721.916 761.712 741.689 762.29 753.014 765.571ZM425.329 889.841C438.191 898.524 461.035 907.979 479.464 912.224C497.316 916.277 525.919 916.663 542.62 913.189C567.768 907.786 595.219 893.893 617.871 875.368L623.822 870.351L622.862 888.297C621.902 902.769 622.478 909.33 625.933 922.452C629.005 935.38 629.389 939.24 627.661 940.397C622.862 943.485 590.42 953.133 576.214 955.642C553.178 959.887 464.874 959.308 442.798 954.87C426.097 951.396 396.727 941.362 394.999 938.275C394.423 937.503 395.767 931.328 397.878 924.381C400.95 914.54 401.718 907.979 401.142 891.384L400.566 870.93L408.244 877.105C412.468 880.578 420.146 886.174 425.329 889.841Z" fill="black"/>
<path d="M262.927 38.6705C256.976 40.6001 248.337 44.4594 243.73 47.1609C233.364 53.1429 217.047 70.3168 211.864 80.5439C191.132 121.453 204.185 170.659 242.194 195.165L251.793 201.34L248.145 208.287C240.851 222.952 230.868 252.862 226.261 274.281C218.391 310.173 216.279 329.276 216.471 362.08C216.663 387.359 217.431 395.656 220.694 408.199C232.212 450.266 259.663 487.894 296.521 511.821L313.222 522.628L304.199 530.153C250.257 573.763 207.257 640.529 192.283 703.243C183.069 741.643 191.132 771.167 213.975 782.745C219.35 785.446 225.493 787.569 227.605 787.569C231.252 787.569 231.252 787.762 227.221 792.007C220.886 798.761 211.672 820.18 208.408 836.003C196.89 890.226 227.989 957.185 275.788 981.113C290.378 988.639 301.704 990.761 320.516 989.797C347.583 988.253 370.811 974.938 385.401 951.975L392.887 940.397L399.606 943.871C425.137 956.992 455.66 961.817 511.906 961.817C567.768 961.817 593.299 957.764 629.965 943.099C631.884 942.327 633.996 944.064 636.491 948.695C642.442 959.694 661.255 976.289 675.46 983.043C687.746 988.832 689.666 989.218 710.59 989.218C732.09 989.218 733.05 989.025 747.831 981.885C769.907 971.272 789.488 951.203 801.39 926.504C813.868 901.032 816.939 887.911 817.131 859.931C817.131 833.109 813.1 816.9 801.966 799.34L795.439 788.727L804.845 785.639C839.015 773.868 845.542 730.451 822.122 671.211C804.269 625.864 780.658 589.779 747.064 555.818C733.818 542.503 720.572 529.574 717.309 527.066C714.237 524.75 712.51 522.242 713.662 521.856C714.813 521.47 722.108 517.032 729.595 511.821C765.684 487.701 791.792 451.23 803.117 408.585C808.684 387.938 809.068 336.416 804.077 304.191C798.51 268.878 787.568 231.636 774.323 202.498C773.939 201.919 778.546 198.06 784.689 194.008C811.756 175.869 827.497 140.17 821.93 108.91C817.707 84.2103 801.39 60.0896 780.466 47.1609C755.894 32.1096 723.068 31.3378 696.385 45.0383C685.443 50.6343 668.742 67.0364 662.215 78.6143L656.648 88.6485L643.786 83.2455C625.741 75.5268 600.21 68.3871 574.295 63.563C544.732 58.16 482.727 57.774 455.276 62.5982C424.37 68.3871 393.463 77.4565 369.851 88.2626C368.7 88.6485 366.012 85.3681 363.708 80.9299C346.624 45.6172 300.936 26.5137 262.927 38.6705ZM323.204 46.1961C337.217 53.1429 352.766 67.4223 360.445 80.5439C363.325 85.3681 365.244 89.4203 364.86 89.8063C364.476 89.9992 357.374 94.2445 349.311 99.0686L334.53 107.945L329.731 99.8405C315.333 75.1409 280.971 71.0886 259.087 91.543C244.114 105.436 240.275 131.873 250.449 149.433C253.52 154.45 259.279 161.01 263.311 164.098L270.605 169.308L262.159 182.816C257.36 190.148 252.752 196.323 251.985 196.709C248.529 197.867 227.413 179.728 220.694 169.887C208.984 152.906 205.145 139.591 206.105 117.979C206.681 103.121 207.833 97.5249 212.056 88.2626C218.967 73.2113 228.757 61.4404 241.618 52.9499C258.511 41.5649 269.07 38.6705 291.338 39.2494C308.422 39.8283 311.878 40.6001 323.204 46.1961ZM770.099 45.8102C825.385 72.4394 836.903 142.293 792.559 182.816C780.274 194.201 771.827 199.218 770.675 195.744C770.291 194.393 766.452 188.026 762.229 181.465C758.006 174.904 754.742 169.501 755.126 169.308C763.381 164.484 770.867 156.572 774.899 147.889C779.506 138.626 780.082 135.539 779.314 123.189C778.738 111.611 777.778 107.366 773.363 100.998C761.653 83.0525 740.537 74.562 721.532 80.158C710.014 83.6314 699.456 91.543 694.465 100.998L690.818 107.752L676.612 99.4545C668.742 95.0163 661.831 90.7711 661.255 90.3852C659.719 88.6485 667.782 74.755 676.036 65.2997C692.161 46.968 712.51 38.6705 739.385 39.2494C755.318 39.8283 759.157 40.6001 770.099 45.8102ZM555.098 64.1419C595.411 69.159 625.357 77.8424 657.8 93.6656C671.621 100.419 689.666 111.225 698.112 117.593C716.349 131.294 743.224 158.695 754.166 174.904C786.225 222.566 805.229 292.034 805.037 362.08C805.037 384.464 804.269 392.183 800.238 407.62C778.546 490.981 708.095 539.994 584.853 557.168C554.138 561.607 479.848 562.185 449.517 558.326C350.271 545.976 282.699 512.593 246.993 458.563C234.9 440.424 226.069 419.391 221.846 398.358C214.935 365.554 221.654 293.385 235.668 248.81C256.592 182.044 297.672 130.908 356.414 98.6827C385.593 82.6666 425.329 70.1238 462.187 65.1067C485.607 61.8263 533.214 61.2474 555.098 64.1419ZM308.422 84.9821C316.101 88.6485 323.588 95.5952 329.155 104.472C332.226 109.489 332.226 109.489 319.364 119.33C306.887 128.785 285.962 149.626 277.132 161.203L272.909 166.799L265.422 161.589C243.154 145.959 242.002 110.454 263.311 92.5078C276.556 81.1228 294.025 78.2284 308.422 84.9821ZM755.894 88.2626C772.979 98.8756 781.041 119.523 775.666 138.626C773.171 147.696 757.046 167.378 753.206 166.028C752.247 165.642 746.296 159.081 739.769 151.362C729.595 139.591 719.037 129.943 697.536 112.769L693.121 109.296L698.688 100.419C710.782 81.3158 736.122 75.9128 755.894 88.2626ZM332.994 531.89C385.401 555.818 465.834 567.974 544.732 563.536C604.817 560.256 655.112 549.45 695.425 530.732L708.67 524.557L715.773 529.96C729.787 540.38 767.412 580.324 780.082 598.463C802.734 630.688 821.354 670.246 829.801 704.401C839.783 744.538 828.265 776.377 801.198 783.71C790.256 786.604 788.528 785.06 792.943 776.377C797.55 767.308 800.046 751.87 797.167 750.134C795.823 749.169 795.055 751.291 795.055 756.501C795.055 763.062 790.256 779.85 788.336 779.85C788.144 779.85 782.961 776.956 777.202 773.289C771.251 769.816 763.573 765.764 760.117 764.413C756.662 762.869 753.59 761.519 753.206 761.326C752.823 761.133 753.782 758.431 755.318 755.344C759.541 747.239 761.077 741.257 758.965 741.257C758.006 741.257 756.662 743.766 756.086 746.66C755.51 749.748 753.398 753.993 751.479 756.308C748.407 760.168 746.872 760.361 737.657 759.203C727.867 758.045 727.291 757.659 723.836 750.134C721.532 744.924 720.188 737.784 720.188 729.293C720.188 718.294 721.148 714.628 727.099 703.243C734.01 690.121 734.01 690.121 731.898 676.421C728.059 650.564 701.376 579.166 695.617 579.166C694.657 579.166 697.92 587.271 702.912 597.112C713.662 618.724 724.604 651.142 728.827 673.912L731.898 690.7L726.907 698.033C716.349 713.663 714.046 735.082 721.148 752.256C723.836 758.431 723.644 758.624 718.653 759.589C699.456 763.641 689.282 768.079 675.844 778.307L667.398 784.867V753.993C667.206 718.294 663.943 701.892 651.081 674.491C623.054 614.093 574.295 581.096 512.866 581.096C462.379 581.096 422.45 601.55 391.735 643.038C379.066 660.212 366.012 688.385 361.021 709.611C356.606 728.136 355.262 759.203 357.95 777.728L359.485 787.955L351.231 781.008C340.673 771.939 321.86 762.869 310.534 761.326C305.543 760.554 301.32 759.396 300.936 758.817C300.36 758.045 301.896 752.449 304.007 746.081C306.887 737.591 307.463 731.802 306.695 724.469C305.543 714.049 299.4 698.033 294.985 693.016C289.226 686.648 304.007 633.776 320.9 599.621C330.69 579.745 332.61 572.606 323.972 587.271C312.07 607.918 297.48 649.599 292.297 677.579C289.994 690.121 289.994 690.121 296.713 703.243C302.663 714.435 303.623 718.294 303.623 729.293C303.623 738.17 302.472 744.345 299.784 750.134C296.137 757.466 294.985 758.238 286.922 759.396C276.556 760.747 273.869 759.01 268.878 748.011C266.958 743.766 265.422 741.836 265.422 743.766C265.23 745.695 266.958 750.52 268.878 754.572L272.717 761.904L265.23 764.22C261.199 765.378 253.328 769.43 247.953 773.096C242.386 776.763 237.203 779.271 236.051 778.692C232.596 776.57 228.757 764.799 228.565 756.308C228.565 749.748 228.181 748.783 226.837 752.063C224.917 756.694 227.413 769.623 231.636 777.921C235.092 784.481 233.94 785.832 226.069 784.288C203.033 779.85 188.444 754.958 191.132 724.662C195.163 679.315 225.301 617.759 266.958 569.711C278.86 556.011 313.03 525.136 316.293 525.136C317.445 525.136 325.123 528.224 332.994 531.89ZM531.87 584.955C591.188 592.481 640.907 638.793 658.759 703.05C664.902 725.048 666.822 749.169 664.518 770.202C662.599 787.762 662.023 789.113 651.849 804.55C640.523 821.145 631.116 841.406 629.005 853.563C626.509 866.685 596.371 891.191 569.112 902.383C543.964 912.61 508.067 915.891 481.767 910.295C453.932 904.313 423.026 887.911 405.941 870.158C400.182 864.176 397.11 858.58 394.615 850.283C390.584 835.424 380.026 814.391 370.811 801.848C361.981 790.077 359.293 777.921 359.293 750.52C359.293 717.715 368.124 686.455 385.209 658.475C411.124 616.409 446.638 591.709 490.79 585.148C507.107 582.833 513.826 582.833 531.87 584.955ZM317.445 766.343C344.896 774.833 367.356 796.252 383.481 829.442C392.887 848.932 397.11 865.141 398.838 888.876C403.253 946.572 355.07 995.393 302.472 986.709C282.123 983.236 266.766 974.745 248.913 956.606C236.435 944.064 231.636 937.503 224.342 922.645C213.208 899.875 209.56 884.63 209.56 859.931C209.56 828.478 217.623 806.672 236.243 787.569C258.511 764.799 287.882 757.08 317.445 766.343ZM753.014 765.571C779.314 773.289 799.854 794.323 809.26 822.496C815.403 841.406 816.939 856.843 814.251 875.754C809.836 908.944 796.399 937.117 775.091 958.343C737.081 996.164 687.362 997.708 652.233 962.395C633.612 943.871 625.357 923.031 625.549 895.629C625.741 862.825 637.643 828.092 657.8 801.462C671.237 783.71 692.353 768.851 710.014 764.606C721.916 761.712 741.689 762.29 753.014 765.571ZM425.329 889.841C438.191 898.524 461.035 907.979 479.464 912.224C497.316 916.277 525.919 916.663 542.62 913.189C567.768 907.786 595.219 893.893 617.871 875.368L623.822 870.351L622.862 888.297C621.902 902.769 622.478 909.33 625.933 922.452C629.005 935.38 629.389 939.24 627.661 940.397C622.862 943.485 590.42 953.133 576.214 955.642C553.178 959.887 464.874 959.308 442.798 954.87C426.097 951.396 396.727 941.362 394.999 938.275C394.423 937.503 395.767 931.328 397.878 924.381C400.95 914.54 401.718 907.979 401.142 891.384L400.566 870.93L408.244 877.105C412.468 880.578 420.146 886.174 425.329 889.841Z" stroke="black" stroke-width="2" mask="url(#path-1-outside-1_31_487)"/>
<path d="M386.744 348.108C392.366 348.108 397.147 347.182 401.31 345.189C405.474 343.194 408.99 340.145 412.102 335.942V335.941C419.385 326.081 422.047 313.503 420.618 301.838C419.189 290.177 413.662 279.37 404.495 273.096L404.49 273.092C393.57 265.839 379.712 266.033 369.174 273.683V273.684C363.645 277.682 359.836 282.091 357.418 287.761C355.005 293.421 353.994 300.299 353.994 309.208C353.994 315.573 354.185 319.536 354.968 322.808C355.756 326.099 357.136 328.664 359.449 332.249L359.451 332.252C363.032 337.7 366.924 341.671 371.399 344.277C375.879 346.885 380.912 348.108 386.744 348.108ZM405.921 303.817C403.197 306.992 398.585 308.427 394.331 305.523L394.332 305.522C392.051 303.871 390.835 301.548 390.699 299.074C390.564 296.595 391.512 293.925 393.64 291.6L393.648 291.59L394.016 291.184C395.855 289.225 397.754 288.347 399.638 288.409C401.659 288.475 403.797 289.627 405.956 291.986C409.398 295.813 408.648 300.638 405.921 303.817Z" fill="black" stroke="black"/>
<path d="M638.795 348.108C654.637 348.108 665.871 336.258 670.086 321.526C674.302 306.791 671.55 289.03 659.302 277.011H659.301C655.847 273.636 653.534 271.645 650.827 270.447C648.12 269.249 645.062 268.862 640.168 268.573L640.169 268.572C636.973 268.377 633.73 268.475 631.015 268.767C629.657 268.913 628.425 269.109 627.394 269.343C626.371 269.576 625.514 269.853 624.925 270.176L624.918 270.18L624.912 270.184C611.311 278.192 604.125 291.292 604.125 308.05C604.125 319.823 607.658 329.835 613.772 336.912C619.892 343.994 628.573 348.108 638.795 348.108ZM629.529 306.648C627.401 307.832 625.32 307.892 623.494 307.23C621.656 306.563 620.046 305.151 618.919 303.347C616.728 299.841 616.432 295.007 619.628 291.562L619.948 291.233L619.955 291.227L619.961 291.22C621.898 289.181 624.016 288.299 626.117 288.432C628.229 288.566 630.421 289.733 632.475 291.985C636.466 296.362 635.023 303.886 629.548 306.638L629.539 306.643L629.529 306.648Z" fill="black" stroke="black"/>
<path d="M512.242 512.949C527.528 512.949 542.884 511.452 554.267 508.446H554.268C580.455 501.478 600.81 488.837 613.729 472.526C626.653 456.207 632.114 436.238 628.539 414.678L628.538 414.677C621.592 373.366 585.73 335.784 542.743 324.933L542.744 324.932C535.484 323.083 523.869 322.168 512.313 322.192C500.761 322.216 489.191 323.181 482.023 325.127C440.971 335.977 405.111 372.001 397.197 410.605C392.465 433.128 397.343 454.019 410.148 471.069C422.948 488.11 443.643 501.284 470.505 508.446C481.696 511.452 496.957 512.949 512.242 512.949ZM520.52 508.621C477.335 510.739 441.972 497.981 420.788 476.854C399.624 455.747 392.565 426.249 406.018 394.695C420.919 359.743 457.241 332.254 496.626 326.104H496.625C501.651 325.342 511.151 325.481 520.77 326.229C530.387 326.976 540.035 328.324 545.354 329.948L545.359 329.949C592.407 343.79 627.913 389.15 625.243 431.13C623.813 453.453 613.049 472.04 594.946 485.442C576.833 498.851 551.356 507.08 520.52 508.62V508.621Z" fill="black" stroke="black"/>
<path d="M487.719 460.028C492.775 460.028 498.638 458.857 503.238 457.275C505.538 456.484 507.546 455.583 508.99 454.658C509.711 454.196 510.311 453.715 510.735 453.225C511.123 452.778 511.396 452.281 511.438 451.752C511.622 451.759 511.943 451.833 512.408 452.029C513.386 452.44 514.787 453.281 516.4 454.521L516.404 454.524C520.358 457.505 526.041 459.059 533.753 459.64C546.495 460.582 556.211 458.056 564.421 451.489L565.211 450.841L565.216 450.836C569.398 447.219 573.038 442.194 575.01 438.058C575.99 436.001 576.588 434.105 576.592 432.686C576.593 431.974 576.445 431.317 576.051 430.83C575.641 430.324 575.032 430.084 574.295 430.083C573.899 430.083 573.547 430.262 573.262 430.51C572.976 430.759 572.73 431.099 572.53 431.488C572.13 432.266 571.875 433.311 571.875 434.442C571.875 434.862 571.697 435.505 571.317 436.339C570.944 437.159 570.401 438.113 569.727 439.136C568.378 441.182 566.527 443.472 564.534 445.475C558.196 451.846 549.386 455.517 540.708 456.232C532.026 456.947 523.541 454.7 517.815 449.322C516.77 448.319 515.992 447.473 515.396 446.523C514.803 445.578 514.377 444.508 514.075 443.048C513.464 440.095 513.366 435.62 513.366 427.496V409.966L520.252 408.691H520.251C529.764 406.934 539.064 401.769 545.987 395.224C552.899 388.689 557.518 380.703 557.518 373.272C557.517 364.934 550.84 355.524 541.888 351.023L541.889 351.022C537.285 348.659 529.044 347.014 520.395 346.29C511.731 345.564 502.559 345.754 496.062 347.119V347.12C487.176 348.964 480.219 352.177 475.477 356.576C470.722 360.985 468.214 366.569 468.214 373.08C468.214 389.535 482.968 404.521 502.806 408.509L503.754 408.691L510.446 409.964V449.396L504.568 452.719C496.554 456.984 486.282 457.236 477.09 454.443C467.895 451.648 459.877 445.836 456.307 438.092L456.306 438.093C455.385 436.049 454.45 434.349 453.593 433.059C452.746 431.786 451.944 430.862 451.277 430.429C450.958 430.222 450.546 430.046 450.137 430.176C449.688 430.319 449.495 430.739 449.422 431.127C449.347 431.529 449.365 432.049 449.458 432.669C449.552 433.298 449.73 434.064 449.998 434.97L450 434.978C454.492 449.309 470.648 460.028 487.719 460.028Z" fill="black" stroke="black"/>
<path d="M302.117 835.391C308.548 841.856 315.763 843.56 321.428 841.217C327.092 838.874 330.999 832.569 330.999 823.461C330.999 813.937 326.262 806.059 320.07 802.009C313.867 797.951 306.154 797.724 300.387 803.621V803.622C298.437 805.486 297.182 807.191 296.43 809.483C295.684 811.758 295.445 814.576 295.445 818.637C295.445 822.975 295.634 825.717 296.585 828.107C297.538 830.503 299.237 832.496 302.117 835.391ZM320.69 837.349C318.012 838.682 314.63 838.918 310.709 837.464C307.686 836.263 304.594 833.183 302.249 829.396C299.905 825.612 298.365 821.217 298.365 817.478C298.365 810.404 301.684 805.749 306.128 804.077C310.58 802.402 316.329 803.656 321.311 808.759C327.708 815.573 328.904 824.246 326.575 830.448C325.411 833.548 323.377 836.014 320.69 837.349Z" fill="black" stroke="black"/>
<path d="M267.342 855.607C273.092 855.607 277.836 851.156 280.373 845.37C282.916 839.569 283.321 832.27 280.264 826.321C276.944 819.843 271.425 815.218 265.806 813.22C260.191 811.224 254.384 811.831 250.652 815.987L250.649 815.991C248.353 818.6 246.841 822.663 246.258 827.11C245.673 831.565 246.012 836.468 247.479 840.795C248.766 844.866 251.669 848.562 255.261 851.239C258.855 853.917 263.181 855.607 267.342 855.607ZM266.189 850.747C259.01 850.747 253.338 844.717 250.948 837.392C248.56 830.071 249.549 821.75 255.356 817.299C257.581 815.622 259.71 814.955 261.975 815.248C264.265 815.545 266.769 816.831 269.714 819.218L269.721 819.223C276.593 824.617 279.398 832.552 278.627 839.105C278.242 842.379 276.966 845.289 274.885 847.375C272.81 849.456 269.904 850.747 266.189 850.747Z" fill="black" stroke="black"/>
<path d="M245.266 894.2C251.288 894.2 255.576 890.153 257.283 884.832C258.989 879.515 258.145 872.876 253.912 867.532L253.911 867.531C252.35 865.569 250.899 864.248 249.069 863.43C247.247 862.616 245.1 862.326 242.194 862.326C238.941 862.326 236.801 862.51 235.139 863.424C233.46 864.347 232.347 865.967 231 868.578L230.998 868.582C228.132 874.244 228.679 880.643 231.438 885.621C234.198 890.599 239.198 894.2 245.266 894.2ZM245.271 891.004C243.294 890.982 241.06 889.83 237.897 887.326L237.895 887.323C232.264 882.941 231.456 874.222 236.012 868.816L236.232 868.561L236.235 868.558C238.273 866.231 240.479 865.223 242.799 865.422C245.147 865.625 247.729 867.072 250.473 869.925L250.479 869.932L250.484 869.938C253.287 872.662 254.756 875.828 254.916 878.916C255.076 881.999 253.936 885.048 251.438 887.558C249.061 889.948 247.219 891.026 245.271 891.004Z" fill="black" stroke="black"/>
<path d="M306.94 960.947C327.528 966.998 349.075 957.425 359.162 937.926L359.165 937.92C372.342 911.624 359.96 876.375 333.38 865.259L333.373 865.256C328.97 863.486 322.277 862.567 315.698 862.519C309.124 862.47 302.562 863.29 298.436 865.068L298.432 865.07C277.562 874.242 268.606 895.022 270.396 915.067C272.187 935.111 284.729 954.512 306.94 960.947ZM360.714 914.54C360.714 947.388 329.783 967.759 300.957 954.224L300.952 954.222C284.625 946.779 275.315 932.67 273.792 913.535C273.409 908.333 273.366 905.011 273.953 901.847C274.54 898.685 275.763 895.648 277.966 891.027L278.519 889.937C290.361 867.277 315.69 859.369 337.157 871.941C352.159 880.721 360.714 896.181 360.714 914.54Z" fill="black" stroke="black"/>
<path d="M709.439 842.276C712.956 842.423 716.451 841.279 719.538 839.14C725.709 834.864 730.287 826.599 730.287 816.514C730.287 809.73 727.691 804.445 723.449 801.51C719.205 798.573 713.407 798.055 707.141 800.613C701.151 803.022 697.013 810.27 695.44 817.811C694.65 821.6 694.495 825.511 695.092 829.002C695.688 832.489 697.043 835.595 699.307 837.719C702.411 840.689 705.919 842.129 709.439 842.276ZM708.901 838.905C706.906 838.753 705.106 837.405 702.312 834.499L702.308 834.493L702.303 834.488C698.714 830.973 697.469 825.08 698.296 819.335C699.122 813.596 701.991 808.168 706.419 805.566C708.913 804.173 712.174 803.558 715.219 803.723C718.277 803.888 721.007 804.833 722.513 806.436L722.518 806.442L722.522 806.446C726.215 810.158 727.403 815.861 726.392 821.466C725.381 827.067 722.185 832.482 717.236 835.579V835.58C715.276 836.782 713.697 837.656 712.345 838.209C710.995 838.762 709.901 838.982 708.901 838.905Z" fill="black" stroke="black"/>
<path d="M757.853 855.256C761.466 855.697 765.161 854.725 768.469 852.661C775.082 848.534 780.198 840.021 780.198 829.443C780.198 821.941 776.557 816.304 771.378 813.726C766.197 811.147 759.56 811.672 753.665 816.314L753.662 816.316L753.975 816.706L753.662 816.317C742.177 825.514 739.544 839.528 747.832 849.446C750.738 852.959 754.233 854.814 757.853 855.256ZM759.542 850.747C755.406 850.747 752.308 849.212 750.216 846.804C748.115 844.386 746.998 841.051 746.916 837.415C746.752 830.138 750.739 821.785 759.002 817.537L759.011 817.533C761.716 816.076 763.168 815.405 764.449 815.249C765.697 815.098 766.83 815.432 768.931 816.199C769.618 816.549 770.665 817.408 771.746 818.588C772.826 819.768 773.901 821.226 774.644 822.718L774.645 822.721C777.428 828.224 776.519 835.233 773.428 840.902C770.333 846.578 765.144 850.747 759.542 850.747Z" fill="black" stroke="black"/>
<path d="M671.435 946.126C689.481 967.578 719.774 968.357 738.981 947.687C752.914 932.904 757.964 913.621 752.729 895.3L752.728 895.295C744.383 867.011 714.288 854.137 687.716 867.395L687.715 867.396C659.404 881.625 650.87 922.139 671.435 946.126ZM711.84 958.162C704.39 959.232 696.618 957.951 688.729 954.224H688.727C669.558 945.258 661.679 926.715 663.84 908.762C666.002 890.806 678.21 873.468 699.221 866.969H699.22C706.018 864.881 712.445 865.063 720.63 867.359L720.634 867.36C725.136 868.586 730.444 871.907 735.286 876.223C740.123 880.535 744.445 885.794 747.002 890.839H747.003C751.352 899.392 751.981 910.167 749.458 920.573C746.936 930.976 741.275 940.962 733.11 947.928L733.108 947.93C726.451 953.667 719.29 957.092 711.84 958.162Z" fill="black" stroke="black"/>
<path d="M779.891 894.2C786.499 894.2 791.824 889.129 794.341 883.135C796.855 877.147 796.668 869.986 791.935 865.734L791.934 865.733C790.093 864.088 786.947 863.057 783.665 862.69C780.371 862.322 776.826 862.611 774.134 863.713V863.714C773.233 864.059 772.278 864.972 771.375 866.119C770.451 867.292 769.523 868.787 768.696 870.387C767.055 873.566 765.761 877.272 765.761 879.806C765.761 883.165 767.672 886.758 770.342 889.491C773.011 892.223 776.54 894.2 779.891 894.2ZM790.748 882.718C788.429 888.776 783.374 891.09 778.942 890.336C774.516 889.583 770.6 885.75 770.6 879.227C770.6 875.691 772.038 872.183 774.205 869.56C776.378 866.93 779.225 865.255 782.002 865.255C782.84 865.255 784.049 865.645 785.343 866.331C786.623 867.009 787.926 867.945 788.942 868.967C791.023 871.058 792.086 872.747 792.353 874.735C792.623 876.75 792.088 879.157 790.748 882.717V882.718Z" fill="black" stroke="black"/>
</svg>
